<mxfile host="app.diagrams.net" modified="2024-06-05T03:18:15.062Z" agent="Mozilla/5.0 (Windows NT 10.0; Win64; x64) AppleWebKit/537.36 (KHTML, like Gecko) Chrome/125.0.0.0 Safari/537.36 Edg/125.0.0.0" etag="tB1oL2o0OeSpFbGNikNn" version="24.4.10" type="github">
  <diagram name="第 1 页" id="lsborwnT0gprOT2CD9yx">
    <mxGraphModel dx="1386" dy="751" grid="0" gridSize="10" guides="1" tooltips="1" connect="1" arrows="1" fold="1" page="0" pageScale="1" pageWidth="827" pageHeight="1169" math="0" shadow="0">
      <root>
        <mxCell id="0" />
        <mxCell id="1" parent="0" />
        <mxCell id="xoI9QJaOge4s5o_3HhD3-1" value="" style="shape=table;startSize=0;container=1;collapsible=0;childLayout=tableLayout;fontSize=16;fillColor=#99FF99;strokeWidth=5;strokeColor=#FFFFFF;" vertex="1" parent="1">
          <mxGeometry x="150" y="160" width="540" height="40" as="geometry" />
        </mxCell>
        <mxCell id="xoI9QJaOge4s5o_3HhD3-2" value="" style="shape=tableRow;horizontal=0;startSize=0;swimlaneHead=0;swimlaneBody=0;strokeColor=inherit;top=0;left=0;bottom=0;right=0;collapsible=0;dropTarget=0;fillColor=none;points=[[0,0.5],[1,0.5]];portConstraint=eastwest;fontSize=16;" vertex="1" parent="xoI9QJaOge4s5o_3HhD3-1">
          <mxGeometry width="540" height="40" as="geometry" />
        </mxCell>
        <mxCell id="xoI9QJaOge4s5o_3HhD3-3" value="-2" style="shape=partialRectangle;html=1;whiteSpace=wrap;connectable=0;strokeColor=inherit;overflow=hidden;fillColor=none;top=0;left=0;bottom=0;right=0;pointerEvents=1;fontSize=16;" vertex="1" parent="xoI9QJaOge4s5o_3HhD3-2">
          <mxGeometry width="60" height="40" as="geometry">
            <mxRectangle width="60" height="40" as="alternateBounds" />
          </mxGeometry>
        </mxCell>
        <mxCell id="xoI9QJaOge4s5o_3HhD3-4" value="1" style="shape=partialRectangle;html=1;whiteSpace=wrap;connectable=0;strokeColor=inherit;overflow=hidden;fillColor=none;top=0;left=0;bottom=0;right=0;pointerEvents=1;fontSize=16;" vertex="1" parent="xoI9QJaOge4s5o_3HhD3-2">
          <mxGeometry x="60" width="60" height="40" as="geometry">
            <mxRectangle width="60" height="40" as="alternateBounds" />
          </mxGeometry>
        </mxCell>
        <mxCell id="xoI9QJaOge4s5o_3HhD3-5" value="-3" style="shape=partialRectangle;html=1;whiteSpace=wrap;connectable=0;strokeColor=inherit;overflow=hidden;fillColor=none;top=0;left=0;bottom=0;right=0;pointerEvents=1;fontSize=16;" vertex="1" parent="xoI9QJaOge4s5o_3HhD3-2">
          <mxGeometry x="120" width="60" height="40" as="geometry">
            <mxRectangle width="60" height="40" as="alternateBounds" />
          </mxGeometry>
        </mxCell>
        <mxCell id="xoI9QJaOge4s5o_3HhD3-14" value="4" style="shape=partialRectangle;html=1;whiteSpace=wrap;connectable=0;strokeColor=inherit;overflow=hidden;fillColor=none;top=0;left=0;bottom=0;right=0;pointerEvents=1;fontSize=16;" vertex="1" parent="xoI9QJaOge4s5o_3HhD3-2">
          <mxGeometry x="180" width="60" height="40" as="geometry">
            <mxRectangle width="60" height="40" as="alternateBounds" />
          </mxGeometry>
        </mxCell>
        <mxCell id="xoI9QJaOge4s5o_3HhD3-15" value="-1" style="shape=partialRectangle;html=1;whiteSpace=wrap;connectable=0;strokeColor=inherit;overflow=hidden;fillColor=none;top=0;left=0;bottom=0;right=0;pointerEvents=1;fontSize=16;" vertex="1" parent="xoI9QJaOge4s5o_3HhD3-2">
          <mxGeometry x="240" width="60" height="40" as="geometry">
            <mxRectangle width="60" height="40" as="alternateBounds" />
          </mxGeometry>
        </mxCell>
        <mxCell id="xoI9QJaOge4s5o_3HhD3-16" value="2" style="shape=partialRectangle;html=1;whiteSpace=wrap;connectable=0;strokeColor=inherit;overflow=hidden;fillColor=none;top=0;left=0;bottom=0;right=0;pointerEvents=1;fontSize=16;" vertex="1" parent="xoI9QJaOge4s5o_3HhD3-2">
          <mxGeometry x="300" width="60" height="40" as="geometry">
            <mxRectangle width="60" height="40" as="alternateBounds" />
          </mxGeometry>
        </mxCell>
        <mxCell id="xoI9QJaOge4s5o_3HhD3-17" value="1" style="shape=partialRectangle;html=1;whiteSpace=wrap;connectable=0;strokeColor=inherit;overflow=hidden;fillColor=none;top=0;left=0;bottom=0;right=0;pointerEvents=1;fontSize=16;" vertex="1" parent="xoI9QJaOge4s5o_3HhD3-2">
          <mxGeometry x="360" width="60" height="40" as="geometry">
            <mxRectangle width="60" height="40" as="alternateBounds" />
          </mxGeometry>
        </mxCell>
        <mxCell id="xoI9QJaOge4s5o_3HhD3-18" value="-5" style="shape=partialRectangle;html=1;whiteSpace=wrap;connectable=0;strokeColor=inherit;overflow=hidden;fillColor=none;top=0;left=0;bottom=0;right=0;pointerEvents=1;fontSize=16;" vertex="1" parent="xoI9QJaOge4s5o_3HhD3-2">
          <mxGeometry x="420" width="60" height="40" as="geometry">
            <mxRectangle width="60" height="40" as="alternateBounds" />
          </mxGeometry>
        </mxCell>
        <mxCell id="xoI9QJaOge4s5o_3HhD3-19" value="4" style="shape=partialRectangle;html=1;whiteSpace=wrap;connectable=0;strokeColor=inherit;overflow=hidden;fillColor=none;top=0;left=0;bottom=0;right=0;pointerEvents=1;fontSize=16;" vertex="1" parent="xoI9QJaOge4s5o_3HhD3-2">
          <mxGeometry x="480" width="60" height="40" as="geometry">
            <mxRectangle width="60" height="40" as="alternateBounds" />
          </mxGeometry>
        </mxCell>
        <mxCell id="xoI9QJaOge4s5o_3HhD3-23" value="" style="group" vertex="1" connectable="0" parent="1">
          <mxGeometry x="170" y="210" width="20" height="50" as="geometry" />
        </mxCell>
        <mxCell id="xoI9QJaOge4s5o_3HhD3-21" value="0" style="rounded=0;whiteSpace=wrap;html=1;fillColor=#99FF99;" vertex="1" parent="xoI9QJaOge4s5o_3HhD3-23">
          <mxGeometry y="30" width="20" height="20" as="geometry" />
        </mxCell>
        <mxCell id="xoI9QJaOge4s5o_3HhD3-22" value="" style="endArrow=classic;html=1;rounded=0;exitX=0.5;exitY=0;exitDx=0;exitDy=0;" edge="1" parent="xoI9QJaOge4s5o_3HhD3-23" source="xoI9QJaOge4s5o_3HhD3-21">
          <mxGeometry width="50" height="50" relative="1" as="geometry">
            <mxPoint x="-150" y="170" as="sourcePoint" />
            <mxPoint x="10" as="targetPoint" />
          </mxGeometry>
        </mxCell>
        <mxCell id="xoI9QJaOge4s5o_3HhD3-41" value="" style="group" vertex="1" connectable="0" parent="1">
          <mxGeometry x="650" y="210" width="20" height="50" as="geometry" />
        </mxCell>
        <mxCell id="xoI9QJaOge4s5o_3HhD3-42" value="8" style="rounded=0;whiteSpace=wrap;html=1;fillColor=#99FF99;" vertex="1" parent="xoI9QJaOge4s5o_3HhD3-41">
          <mxGeometry y="30" width="20" height="20" as="geometry" />
        </mxCell>
        <mxCell id="xoI9QJaOge4s5o_3HhD3-43" value="" style="endArrow=classic;html=1;rounded=0;exitX=0.5;exitY=0;exitDx=0;exitDy=0;" edge="1" parent="xoI9QJaOge4s5o_3HhD3-41" source="xoI9QJaOge4s5o_3HhD3-42">
          <mxGeometry width="50" height="50" relative="1" as="geometry">
            <mxPoint x="-150" y="170" as="sourcePoint" />
            <mxPoint x="10" as="targetPoint" />
          </mxGeometry>
        </mxCell>
        <mxCell id="xoI9QJaOge4s5o_3HhD3-47" value="" style="group" vertex="1" connectable="0" parent="1">
          <mxGeometry x="590" y="210" width="20" height="50" as="geometry" />
        </mxCell>
        <mxCell id="xoI9QJaOge4s5o_3HhD3-48" value="7" style="rounded=0;whiteSpace=wrap;html=1;fillColor=#99FF99;" vertex="1" parent="xoI9QJaOge4s5o_3HhD3-47">
          <mxGeometry y="30" width="20" height="20" as="geometry" />
        </mxCell>
        <mxCell id="xoI9QJaOge4s5o_3HhD3-49" value="" style="endArrow=classic;html=1;rounded=0;exitX=0.5;exitY=0;exitDx=0;exitDy=0;" edge="1" parent="xoI9QJaOge4s5o_3HhD3-47" source="xoI9QJaOge4s5o_3HhD3-48">
          <mxGeometry width="50" height="50" relative="1" as="geometry">
            <mxPoint x="-150" y="170" as="sourcePoint" />
            <mxPoint x="10" as="targetPoint" />
          </mxGeometry>
        </mxCell>
        <mxCell id="xoI9QJaOge4s5o_3HhD3-53" value="" style="group" vertex="1" connectable="0" parent="1">
          <mxGeometry x="530" y="210" width="20" height="50" as="geometry" />
        </mxCell>
        <mxCell id="xoI9QJaOge4s5o_3HhD3-54" value="6" style="rounded=0;whiteSpace=wrap;html=1;fillColor=#99FF99;" vertex="1" parent="xoI9QJaOge4s5o_3HhD3-53">
          <mxGeometry y="30" width="20" height="20" as="geometry" />
        </mxCell>
        <mxCell id="xoI9QJaOge4s5o_3HhD3-55" value="" style="endArrow=classic;html=1;rounded=0;exitX=0.5;exitY=0;exitDx=0;exitDy=0;" edge="1" parent="xoI9QJaOge4s5o_3HhD3-53" source="xoI9QJaOge4s5o_3HhD3-54">
          <mxGeometry width="50" height="50" relative="1" as="geometry">
            <mxPoint x="-150" y="170" as="sourcePoint" />
            <mxPoint x="10" as="targetPoint" />
          </mxGeometry>
        </mxCell>
        <mxCell id="xoI9QJaOge4s5o_3HhD3-59" value="" style="group" vertex="1" connectable="0" parent="1">
          <mxGeometry x="470" y="210" width="20" height="50" as="geometry" />
        </mxCell>
        <mxCell id="xoI9QJaOge4s5o_3HhD3-60" value="5" style="rounded=0;whiteSpace=wrap;html=1;fillColor=#99FF99;" vertex="1" parent="xoI9QJaOge4s5o_3HhD3-59">
          <mxGeometry y="30" width="20" height="20" as="geometry" />
        </mxCell>
        <mxCell id="xoI9QJaOge4s5o_3HhD3-61" value="" style="endArrow=classic;html=1;rounded=0;exitX=0.5;exitY=0;exitDx=0;exitDy=0;" edge="1" parent="xoI9QJaOge4s5o_3HhD3-59" source="xoI9QJaOge4s5o_3HhD3-60">
          <mxGeometry width="50" height="50" relative="1" as="geometry">
            <mxPoint x="-150" y="170" as="sourcePoint" />
            <mxPoint x="10" as="targetPoint" />
          </mxGeometry>
        </mxCell>
        <mxCell id="xoI9QJaOge4s5o_3HhD3-62" value="" style="group" vertex="1" connectable="0" parent="1">
          <mxGeometry x="410" y="210" width="20" height="50" as="geometry" />
        </mxCell>
        <mxCell id="xoI9QJaOge4s5o_3HhD3-63" value="4" style="rounded=0;whiteSpace=wrap;html=1;fillColor=#99FF99;" vertex="1" parent="xoI9QJaOge4s5o_3HhD3-62">
          <mxGeometry y="30" width="20" height="20" as="geometry" />
        </mxCell>
        <mxCell id="xoI9QJaOge4s5o_3HhD3-64" value="" style="endArrow=classic;html=1;rounded=0;exitX=0.5;exitY=0;exitDx=0;exitDy=0;" edge="1" parent="xoI9QJaOge4s5o_3HhD3-62" source="xoI9QJaOge4s5o_3HhD3-63">
          <mxGeometry width="50" height="50" relative="1" as="geometry">
            <mxPoint x="-150" y="170" as="sourcePoint" />
            <mxPoint x="10" as="targetPoint" />
          </mxGeometry>
        </mxCell>
        <mxCell id="xoI9QJaOge4s5o_3HhD3-71" value="" style="group" vertex="1" connectable="0" parent="1">
          <mxGeometry x="350" y="210" width="20" height="50" as="geometry" />
        </mxCell>
        <mxCell id="xoI9QJaOge4s5o_3HhD3-72" value="3" style="rounded=0;whiteSpace=wrap;html=1;fillColor=#99FF99;" vertex="1" parent="xoI9QJaOge4s5o_3HhD3-71">
          <mxGeometry y="30" width="20" height="20" as="geometry" />
        </mxCell>
        <mxCell id="xoI9QJaOge4s5o_3HhD3-73" value="" style="endArrow=classic;html=1;rounded=0;exitX=0.5;exitY=0;exitDx=0;exitDy=0;" edge="1" parent="xoI9QJaOge4s5o_3HhD3-71" source="xoI9QJaOge4s5o_3HhD3-72">
          <mxGeometry width="50" height="50" relative="1" as="geometry">
            <mxPoint x="-150" y="170" as="sourcePoint" />
            <mxPoint x="10" as="targetPoint" />
          </mxGeometry>
        </mxCell>
        <mxCell id="xoI9QJaOge4s5o_3HhD3-74" value="" style="group" vertex="1" connectable="0" parent="1">
          <mxGeometry x="290" y="210" width="20" height="50" as="geometry" />
        </mxCell>
        <mxCell id="xoI9QJaOge4s5o_3HhD3-75" value="2" style="rounded=0;whiteSpace=wrap;html=1;fillColor=#99FF99;" vertex="1" parent="xoI9QJaOge4s5o_3HhD3-74">
          <mxGeometry y="30" width="20" height="20" as="geometry" />
        </mxCell>
        <mxCell id="xoI9QJaOge4s5o_3HhD3-76" value="" style="endArrow=classic;html=1;rounded=0;exitX=0.5;exitY=0;exitDx=0;exitDy=0;" edge="1" parent="xoI9QJaOge4s5o_3HhD3-74" source="xoI9QJaOge4s5o_3HhD3-75">
          <mxGeometry width="50" height="50" relative="1" as="geometry">
            <mxPoint x="-150" y="170" as="sourcePoint" />
            <mxPoint x="10" as="targetPoint" />
          </mxGeometry>
        </mxCell>
        <mxCell id="xoI9QJaOge4s5o_3HhD3-77" value="" style="group" vertex="1" connectable="0" parent="1">
          <mxGeometry x="230" y="210" width="20" height="50" as="geometry" />
        </mxCell>
        <mxCell id="xoI9QJaOge4s5o_3HhD3-78" value="1" style="rounded=0;whiteSpace=wrap;html=1;fillColor=#99FF99;" vertex="1" parent="xoI9QJaOge4s5o_3HhD3-77">
          <mxGeometry y="30" width="20" height="20" as="geometry" />
        </mxCell>
        <mxCell id="xoI9QJaOge4s5o_3HhD3-79" value="" style="endArrow=classic;html=1;rounded=0;exitX=0.5;exitY=0;exitDx=0;exitDy=0;" edge="1" parent="xoI9QJaOge4s5o_3HhD3-77" source="xoI9QJaOge4s5o_3HhD3-78">
          <mxGeometry width="50" height="50" relative="1" as="geometry">
            <mxPoint x="-150" y="170" as="sourcePoint" />
            <mxPoint x="10" as="targetPoint" />
          </mxGeometry>
        </mxCell>
        <mxCell id="xoI9QJaOge4s5o_3HhD3-83" value="下标：" style="rounded=1;whiteSpace=wrap;html=1;fillColor=#FFFFCC;" vertex="1" parent="1">
          <mxGeometry x="70" y="230" width="50" height="20" as="geometry" />
        </mxCell>
        <mxCell id="xoI9QJaOge4s5o_3HhD3-84" value="数组：" style="rounded=1;whiteSpace=wrap;html=1;fillColor=#FFFFCC;" vertex="1" parent="1">
          <mxGeometry x="70" y="170" width="50" height="20" as="geometry" />
        </mxCell>
        <mxCell id="xoI9QJaOge4s5o_3HhD3-85" value="&lt;font style=&quot;font-size: 14px;&quot;&gt;result:负无穷&lt;/font&gt;" style="rounded=1;whiteSpace=wrap;html=1;fillColor=#66FFB3;" vertex="1" parent="1">
          <mxGeometry x="280" y="120" width="90" height="20" as="geometry" />
        </mxCell>
        <mxCell id="xoI9QJaOge4s5o_3HhD3-86" value="&lt;font style=&quot;font-size: 14px;&quot;&gt;thisMaxSub:0&lt;/font&gt;" style="rounded=1;whiteSpace=wrap;html=1;fillColor=#66FFB3;" vertex="1" parent="1">
          <mxGeometry x="455" y="120" width="95" height="20" as="geometry" />
        </mxCell>
        <mxCell id="xoI9QJaOge4s5o_3HhD3-87" value="" style="shape=table;startSize=0;container=1;collapsible=0;childLayout=tableLayout;fontSize=16;fillColor=#99FF99;strokeWidth=5;strokeColor=#FFFFFF;" vertex="1" parent="1">
          <mxGeometry x="160" y="384" width="540" height="40" as="geometry" />
        </mxCell>
        <mxCell id="xoI9QJaOge4s5o_3HhD3-88" value="" style="shape=tableRow;horizontal=0;startSize=0;swimlaneHead=0;swimlaneBody=0;strokeColor=inherit;top=0;left=0;bottom=0;right=0;collapsible=0;dropTarget=0;fillColor=none;points=[[0,0.5],[1,0.5]];portConstraint=eastwest;fontSize=16;" vertex="1" parent="xoI9QJaOge4s5o_3HhD3-87">
          <mxGeometry width="540" height="40" as="geometry" />
        </mxCell>
        <mxCell id="xoI9QJaOge4s5o_3HhD3-89" value="-2" style="shape=partialRectangle;html=1;whiteSpace=wrap;connectable=0;strokeColor=inherit;overflow=hidden;fillColor=none;top=0;left=0;bottom=0;right=0;pointerEvents=1;fontSize=16;" vertex="1" parent="xoI9QJaOge4s5o_3HhD3-88">
          <mxGeometry width="60" height="40" as="geometry">
            <mxRectangle width="60" height="40" as="alternateBounds" />
          </mxGeometry>
        </mxCell>
        <mxCell id="xoI9QJaOge4s5o_3HhD3-90" value="1" style="shape=partialRectangle;html=1;whiteSpace=wrap;connectable=0;strokeColor=inherit;overflow=hidden;fillColor=none;top=0;left=0;bottom=0;right=0;pointerEvents=1;fontSize=16;" vertex="1" parent="xoI9QJaOge4s5o_3HhD3-88">
          <mxGeometry x="60" width="60" height="40" as="geometry">
            <mxRectangle width="60" height="40" as="alternateBounds" />
          </mxGeometry>
        </mxCell>
        <mxCell id="xoI9QJaOge4s5o_3HhD3-91" value="-3" style="shape=partialRectangle;html=1;whiteSpace=wrap;connectable=0;strokeColor=inherit;overflow=hidden;fillColor=none;top=0;left=0;bottom=0;right=0;pointerEvents=1;fontSize=16;" vertex="1" parent="xoI9QJaOge4s5o_3HhD3-88">
          <mxGeometry x="120" width="60" height="40" as="geometry">
            <mxRectangle width="60" height="40" as="alternateBounds" />
          </mxGeometry>
        </mxCell>
        <mxCell id="xoI9QJaOge4s5o_3HhD3-92" value="4" style="shape=partialRectangle;html=1;whiteSpace=wrap;connectable=0;strokeColor=inherit;overflow=hidden;fillColor=none;top=0;left=0;bottom=0;right=0;pointerEvents=1;fontSize=16;" vertex="1" parent="xoI9QJaOge4s5o_3HhD3-88">
          <mxGeometry x="180" width="60" height="40" as="geometry">
            <mxRectangle width="60" height="40" as="alternateBounds" />
          </mxGeometry>
        </mxCell>
        <mxCell id="xoI9QJaOge4s5o_3HhD3-93" value="-1" style="shape=partialRectangle;html=1;whiteSpace=wrap;connectable=0;strokeColor=inherit;overflow=hidden;fillColor=none;top=0;left=0;bottom=0;right=0;pointerEvents=1;fontSize=16;" vertex="1" parent="xoI9QJaOge4s5o_3HhD3-88">
          <mxGeometry x="240" width="60" height="40" as="geometry">
            <mxRectangle width="60" height="40" as="alternateBounds" />
          </mxGeometry>
        </mxCell>
        <mxCell id="xoI9QJaOge4s5o_3HhD3-94" value="2" style="shape=partialRectangle;html=1;whiteSpace=wrap;connectable=0;strokeColor=inherit;overflow=hidden;fillColor=none;top=0;left=0;bottom=0;right=0;pointerEvents=1;fontSize=16;" vertex="1" parent="xoI9QJaOge4s5o_3HhD3-88">
          <mxGeometry x="300" width="60" height="40" as="geometry">
            <mxRectangle width="60" height="40" as="alternateBounds" />
          </mxGeometry>
        </mxCell>
        <mxCell id="xoI9QJaOge4s5o_3HhD3-95" value="1" style="shape=partialRectangle;html=1;whiteSpace=wrap;connectable=0;strokeColor=inherit;overflow=hidden;fillColor=none;top=0;left=0;bottom=0;right=0;pointerEvents=1;fontSize=16;" vertex="1" parent="xoI9QJaOge4s5o_3HhD3-88">
          <mxGeometry x="360" width="60" height="40" as="geometry">
            <mxRectangle width="60" height="40" as="alternateBounds" />
          </mxGeometry>
        </mxCell>
        <mxCell id="xoI9QJaOge4s5o_3HhD3-96" value="-5" style="shape=partialRectangle;html=1;whiteSpace=wrap;connectable=0;strokeColor=inherit;overflow=hidden;fillColor=none;top=0;left=0;bottom=0;right=0;pointerEvents=1;fontSize=16;" vertex="1" parent="xoI9QJaOge4s5o_3HhD3-88">
          <mxGeometry x="420" width="60" height="40" as="geometry">
            <mxRectangle width="60" height="40" as="alternateBounds" />
          </mxGeometry>
        </mxCell>
        <mxCell id="xoI9QJaOge4s5o_3HhD3-97" value="4" style="shape=partialRectangle;html=1;whiteSpace=wrap;connectable=0;strokeColor=inherit;overflow=hidden;fillColor=none;top=0;left=0;bottom=0;right=0;pointerEvents=1;fontSize=16;" vertex="1" parent="xoI9QJaOge4s5o_3HhD3-88">
          <mxGeometry x="480" width="60" height="40" as="geometry">
            <mxRectangle width="60" height="40" as="alternateBounds" />
          </mxGeometry>
        </mxCell>
        <mxCell id="xoI9QJaOge4s5o_3HhD3-98" value="" style="group" vertex="1" connectable="0" parent="1">
          <mxGeometry x="180" y="434" width="20" height="50" as="geometry" />
        </mxCell>
        <mxCell id="xoI9QJaOge4s5o_3HhD3-99" value="0" style="rounded=0;whiteSpace=wrap;html=1;fillColor=#FF9999;" vertex="1" parent="xoI9QJaOge4s5o_3HhD3-98">
          <mxGeometry y="30" width="20" height="20" as="geometry" />
        </mxCell>
        <mxCell id="xoI9QJaOge4s5o_3HhD3-100" value="" style="endArrow=classic;html=1;rounded=0;exitX=0.5;exitY=0;exitDx=0;exitDy=0;" edge="1" parent="xoI9QJaOge4s5o_3HhD3-98" source="xoI9QJaOge4s5o_3HhD3-99">
          <mxGeometry width="50" height="50" relative="1" as="geometry">
            <mxPoint x="-150" y="170" as="sourcePoint" />
            <mxPoint x="10" as="targetPoint" />
          </mxGeometry>
        </mxCell>
        <mxCell id="xoI9QJaOge4s5o_3HhD3-101" value="" style="group" vertex="1" connectable="0" parent="1">
          <mxGeometry x="660" y="434" width="20" height="50" as="geometry" />
        </mxCell>
        <mxCell id="xoI9QJaOge4s5o_3HhD3-102" value="8" style="rounded=0;whiteSpace=wrap;html=1;fillColor=#99FF99;" vertex="1" parent="xoI9QJaOge4s5o_3HhD3-101">
          <mxGeometry y="30" width="20" height="20" as="geometry" />
        </mxCell>
        <mxCell id="xoI9QJaOge4s5o_3HhD3-103" value="" style="endArrow=classic;html=1;rounded=0;exitX=0.5;exitY=0;exitDx=0;exitDy=0;" edge="1" parent="xoI9QJaOge4s5o_3HhD3-101" source="xoI9QJaOge4s5o_3HhD3-102">
          <mxGeometry width="50" height="50" relative="1" as="geometry">
            <mxPoint x="-150" y="170" as="sourcePoint" />
            <mxPoint x="10" as="targetPoint" />
          </mxGeometry>
        </mxCell>
        <mxCell id="xoI9QJaOge4s5o_3HhD3-104" value="" style="group" vertex="1" connectable="0" parent="1">
          <mxGeometry x="600" y="434" width="20" height="50" as="geometry" />
        </mxCell>
        <mxCell id="xoI9QJaOge4s5o_3HhD3-105" value="7" style="rounded=0;whiteSpace=wrap;html=1;fillColor=#99FF99;" vertex="1" parent="xoI9QJaOge4s5o_3HhD3-104">
          <mxGeometry y="30" width="20" height="20" as="geometry" />
        </mxCell>
        <mxCell id="xoI9QJaOge4s5o_3HhD3-106" value="" style="endArrow=classic;html=1;rounded=0;exitX=0.5;exitY=0;exitDx=0;exitDy=0;" edge="1" parent="xoI9QJaOge4s5o_3HhD3-104" source="xoI9QJaOge4s5o_3HhD3-105">
          <mxGeometry width="50" height="50" relative="1" as="geometry">
            <mxPoint x="-150" y="170" as="sourcePoint" />
            <mxPoint x="10" as="targetPoint" />
          </mxGeometry>
        </mxCell>
        <mxCell id="xoI9QJaOge4s5o_3HhD3-107" value="" style="group" vertex="1" connectable="0" parent="1">
          <mxGeometry x="540" y="434" width="20" height="50" as="geometry" />
        </mxCell>
        <mxCell id="xoI9QJaOge4s5o_3HhD3-108" value="6" style="rounded=0;whiteSpace=wrap;html=1;fillColor=#99FF99;" vertex="1" parent="xoI9QJaOge4s5o_3HhD3-107">
          <mxGeometry y="30" width="20" height="20" as="geometry" />
        </mxCell>
        <mxCell id="xoI9QJaOge4s5o_3HhD3-109" value="" style="endArrow=classic;html=1;rounded=0;exitX=0.5;exitY=0;exitDx=0;exitDy=0;" edge="1" parent="xoI9QJaOge4s5o_3HhD3-107" source="xoI9QJaOge4s5o_3HhD3-108">
          <mxGeometry width="50" height="50" relative="1" as="geometry">
            <mxPoint x="-150" y="170" as="sourcePoint" />
            <mxPoint x="10" as="targetPoint" />
          </mxGeometry>
        </mxCell>
        <mxCell id="xoI9QJaOge4s5o_3HhD3-110" value="" style="group" vertex="1" connectable="0" parent="1">
          <mxGeometry x="480" y="434" width="20" height="50" as="geometry" />
        </mxCell>
        <mxCell id="xoI9QJaOge4s5o_3HhD3-111" value="5" style="rounded=0;whiteSpace=wrap;html=1;fillColor=#99FF99;" vertex="1" parent="xoI9QJaOge4s5o_3HhD3-110">
          <mxGeometry y="30" width="20" height="20" as="geometry" />
        </mxCell>
        <mxCell id="xoI9QJaOge4s5o_3HhD3-112" value="" style="endArrow=classic;html=1;rounded=0;exitX=0.5;exitY=0;exitDx=0;exitDy=0;" edge="1" parent="xoI9QJaOge4s5o_3HhD3-110" source="xoI9QJaOge4s5o_3HhD3-111">
          <mxGeometry width="50" height="50" relative="1" as="geometry">
            <mxPoint x="-150" y="170" as="sourcePoint" />
            <mxPoint x="10" as="targetPoint" />
          </mxGeometry>
        </mxCell>
        <mxCell id="xoI9QJaOge4s5o_3HhD3-113" value="" style="group" vertex="1" connectable="0" parent="1">
          <mxGeometry x="420" y="434" width="20" height="50" as="geometry" />
        </mxCell>
        <mxCell id="xoI9QJaOge4s5o_3HhD3-114" value="4" style="rounded=0;whiteSpace=wrap;html=1;fillColor=#99FF99;" vertex="1" parent="xoI9QJaOge4s5o_3HhD3-113">
          <mxGeometry y="30" width="20" height="20" as="geometry" />
        </mxCell>
        <mxCell id="xoI9QJaOge4s5o_3HhD3-115" value="" style="endArrow=classic;html=1;rounded=0;exitX=0.5;exitY=0;exitDx=0;exitDy=0;" edge="1" parent="xoI9QJaOge4s5o_3HhD3-113" source="xoI9QJaOge4s5o_3HhD3-114">
          <mxGeometry width="50" height="50" relative="1" as="geometry">
            <mxPoint x="-150" y="170" as="sourcePoint" />
            <mxPoint x="10" as="targetPoint" />
          </mxGeometry>
        </mxCell>
        <mxCell id="xoI9QJaOge4s5o_3HhD3-116" value="" style="group" vertex="1" connectable="0" parent="1">
          <mxGeometry x="360" y="434" width="20" height="50" as="geometry" />
        </mxCell>
        <mxCell id="xoI9QJaOge4s5o_3HhD3-117" value="3" style="rounded=0;whiteSpace=wrap;html=1;fillColor=#99FF99;" vertex="1" parent="xoI9QJaOge4s5o_3HhD3-116">
          <mxGeometry y="30" width="20" height="20" as="geometry" />
        </mxCell>
        <mxCell id="xoI9QJaOge4s5o_3HhD3-118" value="" style="endArrow=classic;html=1;rounded=0;exitX=0.5;exitY=0;exitDx=0;exitDy=0;" edge="1" parent="xoI9QJaOge4s5o_3HhD3-116" source="xoI9QJaOge4s5o_3HhD3-117">
          <mxGeometry width="50" height="50" relative="1" as="geometry">
            <mxPoint x="-150" y="170" as="sourcePoint" />
            <mxPoint x="10" as="targetPoint" />
          </mxGeometry>
        </mxCell>
        <mxCell id="xoI9QJaOge4s5o_3HhD3-119" value="" style="group" vertex="1" connectable="0" parent="1">
          <mxGeometry x="300" y="434" width="20" height="50" as="geometry" />
        </mxCell>
        <mxCell id="xoI9QJaOge4s5o_3HhD3-120" value="2" style="rounded=0;whiteSpace=wrap;html=1;fillColor=#99FF99;" vertex="1" parent="xoI9QJaOge4s5o_3HhD3-119">
          <mxGeometry y="30" width="20" height="20" as="geometry" />
        </mxCell>
        <mxCell id="xoI9QJaOge4s5o_3HhD3-121" value="" style="endArrow=classic;html=1;rounded=0;exitX=0.5;exitY=0;exitDx=0;exitDy=0;" edge="1" parent="xoI9QJaOge4s5o_3HhD3-119" source="xoI9QJaOge4s5o_3HhD3-120">
          <mxGeometry width="50" height="50" relative="1" as="geometry">
            <mxPoint x="-150" y="170" as="sourcePoint" />
            <mxPoint x="10" as="targetPoint" />
          </mxGeometry>
        </mxCell>
        <mxCell id="xoI9QJaOge4s5o_3HhD3-122" value="" style="group" vertex="1" connectable="0" parent="1">
          <mxGeometry x="240" y="434" width="20" height="50" as="geometry" />
        </mxCell>
        <mxCell id="xoI9QJaOge4s5o_3HhD3-123" value="1" style="rounded=0;whiteSpace=wrap;html=1;fillColor=#FFFF00;" vertex="1" parent="xoI9QJaOge4s5o_3HhD3-122">
          <mxGeometry y="30" width="20" height="20" as="geometry" />
        </mxCell>
        <mxCell id="xoI9QJaOge4s5o_3HhD3-124" value="" style="endArrow=classic;html=1;rounded=0;exitX=0.5;exitY=0;exitDx=0;exitDy=0;" edge="1" parent="xoI9QJaOge4s5o_3HhD3-122" source="xoI9QJaOge4s5o_3HhD3-123">
          <mxGeometry width="50" height="50" relative="1" as="geometry">
            <mxPoint x="-150" y="170" as="sourcePoint" />
            <mxPoint x="10" as="targetPoint" />
          </mxGeometry>
        </mxCell>
        <mxCell id="xoI9QJaOge4s5o_3HhD3-125" value="下标：" style="rounded=1;whiteSpace=wrap;html=1;fillColor=#FFFFCC;" vertex="1" parent="1">
          <mxGeometry x="80" y="454" width="50" height="20" as="geometry" />
        </mxCell>
        <mxCell id="xoI9QJaOge4s5o_3HhD3-126" value="数组：" style="rounded=1;whiteSpace=wrap;html=1;fillColor=#FFFFCC;" vertex="1" parent="1">
          <mxGeometry x="80" y="394" width="50" height="20" as="geometry" />
        </mxCell>
        <mxCell id="xoI9QJaOge4s5o_3HhD3-127" value="&lt;font style=&quot;font-size: 14px;&quot;&gt;result:-2&lt;/font&gt;" style="rounded=1;whiteSpace=wrap;html=1;fillColor=#66FFB3;" vertex="1" parent="1">
          <mxGeometry x="290" y="344" width="90" height="20" as="geometry" />
        </mxCell>
        <mxCell id="xoI9QJaOge4s5o_3HhD3-128" value="&lt;font style=&quot;font-size: 14px;&quot;&gt;thisMaxSub:0&lt;/font&gt;" style="rounded=1;whiteSpace=wrap;html=1;fillColor=#66FFB3;" vertex="1" parent="1">
          <mxGeometry x="465" y="344" width="95" height="20" as="geometry" />
        </mxCell>
        <mxCell id="xoI9QJaOge4s5o_3HhD3-130" value="" style="shape=table;startSize=0;container=1;collapsible=0;childLayout=tableLayout;fontSize=16;fillColor=#99FF99;strokeWidth=5;strokeColor=#FFFFFF;" vertex="1" parent="1">
          <mxGeometry x="169" y="577" width="540" height="40" as="geometry" />
        </mxCell>
        <mxCell id="xoI9QJaOge4s5o_3HhD3-131" value="" style="shape=tableRow;horizontal=0;startSize=0;swimlaneHead=0;swimlaneBody=0;strokeColor=inherit;top=0;left=0;bottom=0;right=0;collapsible=0;dropTarget=0;fillColor=none;points=[[0,0.5],[1,0.5]];portConstraint=eastwest;fontSize=16;" vertex="1" parent="xoI9QJaOge4s5o_3HhD3-130">
          <mxGeometry width="540" height="40" as="geometry" />
        </mxCell>
        <mxCell id="xoI9QJaOge4s5o_3HhD3-132" value="-2" style="shape=partialRectangle;html=1;whiteSpace=wrap;connectable=0;strokeColor=inherit;overflow=hidden;fillColor=none;top=0;left=0;bottom=0;right=0;pointerEvents=1;fontSize=16;" vertex="1" parent="xoI9QJaOge4s5o_3HhD3-131">
          <mxGeometry width="60" height="40" as="geometry">
            <mxRectangle width="60" height="40" as="alternateBounds" />
          </mxGeometry>
        </mxCell>
        <mxCell id="xoI9QJaOge4s5o_3HhD3-133" value="1" style="shape=partialRectangle;html=1;whiteSpace=wrap;connectable=0;strokeColor=inherit;overflow=hidden;fillColor=none;top=0;left=0;bottom=0;right=0;pointerEvents=1;fontSize=16;" vertex="1" parent="xoI9QJaOge4s5o_3HhD3-131">
          <mxGeometry x="60" width="60" height="40" as="geometry">
            <mxRectangle width="60" height="40" as="alternateBounds" />
          </mxGeometry>
        </mxCell>
        <mxCell id="xoI9QJaOge4s5o_3HhD3-134" value="-3" style="shape=partialRectangle;html=1;whiteSpace=wrap;connectable=0;strokeColor=inherit;overflow=hidden;fillColor=none;top=0;left=0;bottom=0;right=0;pointerEvents=1;fontSize=16;" vertex="1" parent="xoI9QJaOge4s5o_3HhD3-131">
          <mxGeometry x="120" width="60" height="40" as="geometry">
            <mxRectangle width="60" height="40" as="alternateBounds" />
          </mxGeometry>
        </mxCell>
        <mxCell id="xoI9QJaOge4s5o_3HhD3-135" value="4" style="shape=partialRectangle;html=1;whiteSpace=wrap;connectable=0;strokeColor=inherit;overflow=hidden;fillColor=none;top=0;left=0;bottom=0;right=0;pointerEvents=1;fontSize=16;" vertex="1" parent="xoI9QJaOge4s5o_3HhD3-131">
          <mxGeometry x="180" width="60" height="40" as="geometry">
            <mxRectangle width="60" height="40" as="alternateBounds" />
          </mxGeometry>
        </mxCell>
        <mxCell id="xoI9QJaOge4s5o_3HhD3-136" value="-1" style="shape=partialRectangle;html=1;whiteSpace=wrap;connectable=0;strokeColor=inherit;overflow=hidden;fillColor=none;top=0;left=0;bottom=0;right=0;pointerEvents=1;fontSize=16;" vertex="1" parent="xoI9QJaOge4s5o_3HhD3-131">
          <mxGeometry x="240" width="60" height="40" as="geometry">
            <mxRectangle width="60" height="40" as="alternateBounds" />
          </mxGeometry>
        </mxCell>
        <mxCell id="xoI9QJaOge4s5o_3HhD3-137" value="2" style="shape=partialRectangle;html=1;whiteSpace=wrap;connectable=0;strokeColor=inherit;overflow=hidden;fillColor=none;top=0;left=0;bottom=0;right=0;pointerEvents=1;fontSize=16;" vertex="1" parent="xoI9QJaOge4s5o_3HhD3-131">
          <mxGeometry x="300" width="60" height="40" as="geometry">
            <mxRectangle width="60" height="40" as="alternateBounds" />
          </mxGeometry>
        </mxCell>
        <mxCell id="xoI9QJaOge4s5o_3HhD3-138" value="1" style="shape=partialRectangle;html=1;whiteSpace=wrap;connectable=0;strokeColor=inherit;overflow=hidden;fillColor=none;top=0;left=0;bottom=0;right=0;pointerEvents=1;fontSize=16;" vertex="1" parent="xoI9QJaOge4s5o_3HhD3-131">
          <mxGeometry x="360" width="60" height="40" as="geometry">
            <mxRectangle width="60" height="40" as="alternateBounds" />
          </mxGeometry>
        </mxCell>
        <mxCell id="xoI9QJaOge4s5o_3HhD3-139" value="-5" style="shape=partialRectangle;html=1;whiteSpace=wrap;connectable=0;strokeColor=inherit;overflow=hidden;fillColor=none;top=0;left=0;bottom=0;right=0;pointerEvents=1;fontSize=16;" vertex="1" parent="xoI9QJaOge4s5o_3HhD3-131">
          <mxGeometry x="420" width="60" height="40" as="geometry">
            <mxRectangle width="60" height="40" as="alternateBounds" />
          </mxGeometry>
        </mxCell>
        <mxCell id="xoI9QJaOge4s5o_3HhD3-140" value="4" style="shape=partialRectangle;html=1;whiteSpace=wrap;connectable=0;strokeColor=inherit;overflow=hidden;fillColor=none;top=0;left=0;bottom=0;right=0;pointerEvents=1;fontSize=16;" vertex="1" parent="xoI9QJaOge4s5o_3HhD3-131">
          <mxGeometry x="480" width="60" height="40" as="geometry">
            <mxRectangle width="60" height="40" as="alternateBounds" />
          </mxGeometry>
        </mxCell>
        <mxCell id="xoI9QJaOge4s5o_3HhD3-141" value="" style="group" vertex="1" connectable="0" parent="1">
          <mxGeometry x="189" y="627" width="20" height="50" as="geometry" />
        </mxCell>
        <mxCell id="xoI9QJaOge4s5o_3HhD3-142" value="0" style="rounded=0;whiteSpace=wrap;html=1;fillColor=#FF9999;" vertex="1" parent="xoI9QJaOge4s5o_3HhD3-141">
          <mxGeometry y="30" width="20" height="20" as="geometry" />
        </mxCell>
        <mxCell id="xoI9QJaOge4s5o_3HhD3-143" value="" style="endArrow=classic;html=1;rounded=0;exitX=0.5;exitY=0;exitDx=0;exitDy=0;" edge="1" parent="xoI9QJaOge4s5o_3HhD3-141" source="xoI9QJaOge4s5o_3HhD3-142">
          <mxGeometry width="50" height="50" relative="1" as="geometry">
            <mxPoint x="-150" y="170" as="sourcePoint" />
            <mxPoint x="10" as="targetPoint" />
          </mxGeometry>
        </mxCell>
        <mxCell id="xoI9QJaOge4s5o_3HhD3-144" value="" style="group" vertex="1" connectable="0" parent="1">
          <mxGeometry x="669" y="627" width="20" height="50" as="geometry" />
        </mxCell>
        <mxCell id="xoI9QJaOge4s5o_3HhD3-145" value="8" style="rounded=0;whiteSpace=wrap;html=1;fillColor=#99FF99;" vertex="1" parent="xoI9QJaOge4s5o_3HhD3-144">
          <mxGeometry y="30" width="20" height="20" as="geometry" />
        </mxCell>
        <mxCell id="xoI9QJaOge4s5o_3HhD3-146" value="" style="endArrow=classic;html=1;rounded=0;exitX=0.5;exitY=0;exitDx=0;exitDy=0;" edge="1" parent="xoI9QJaOge4s5o_3HhD3-144" source="xoI9QJaOge4s5o_3HhD3-145">
          <mxGeometry width="50" height="50" relative="1" as="geometry">
            <mxPoint x="-150" y="170" as="sourcePoint" />
            <mxPoint x="10" as="targetPoint" />
          </mxGeometry>
        </mxCell>
        <mxCell id="xoI9QJaOge4s5o_3HhD3-147" value="" style="group" vertex="1" connectable="0" parent="1">
          <mxGeometry x="609" y="627" width="20" height="50" as="geometry" />
        </mxCell>
        <mxCell id="xoI9QJaOge4s5o_3HhD3-148" value="7" style="rounded=0;whiteSpace=wrap;html=1;fillColor=#99FF99;" vertex="1" parent="xoI9QJaOge4s5o_3HhD3-147">
          <mxGeometry y="30" width="20" height="20" as="geometry" />
        </mxCell>
        <mxCell id="xoI9QJaOge4s5o_3HhD3-149" value="" style="endArrow=classic;html=1;rounded=0;exitX=0.5;exitY=0;exitDx=0;exitDy=0;" edge="1" parent="xoI9QJaOge4s5o_3HhD3-147" source="xoI9QJaOge4s5o_3HhD3-148">
          <mxGeometry width="50" height="50" relative="1" as="geometry">
            <mxPoint x="-150" y="170" as="sourcePoint" />
            <mxPoint x="10" as="targetPoint" />
          </mxGeometry>
        </mxCell>
        <mxCell id="xoI9QJaOge4s5o_3HhD3-150" value="" style="group" vertex="1" connectable="0" parent="1">
          <mxGeometry x="549" y="627" width="20" height="50" as="geometry" />
        </mxCell>
        <mxCell id="xoI9QJaOge4s5o_3HhD3-151" value="6" style="rounded=0;whiteSpace=wrap;html=1;fillColor=#99FF99;" vertex="1" parent="xoI9QJaOge4s5o_3HhD3-150">
          <mxGeometry y="30" width="20" height="20" as="geometry" />
        </mxCell>
        <mxCell id="xoI9QJaOge4s5o_3HhD3-152" value="" style="endArrow=classic;html=1;rounded=0;exitX=0.5;exitY=0;exitDx=0;exitDy=0;" edge="1" parent="xoI9QJaOge4s5o_3HhD3-150" source="xoI9QJaOge4s5o_3HhD3-151">
          <mxGeometry width="50" height="50" relative="1" as="geometry">
            <mxPoint x="-150" y="170" as="sourcePoint" />
            <mxPoint x="10" as="targetPoint" />
          </mxGeometry>
        </mxCell>
        <mxCell id="xoI9QJaOge4s5o_3HhD3-153" value="" style="group" vertex="1" connectable="0" parent="1">
          <mxGeometry x="489" y="627" width="20" height="50" as="geometry" />
        </mxCell>
        <mxCell id="xoI9QJaOge4s5o_3HhD3-154" value="5" style="rounded=0;whiteSpace=wrap;html=1;fillColor=#99FF99;" vertex="1" parent="xoI9QJaOge4s5o_3HhD3-153">
          <mxGeometry y="30" width="20" height="20" as="geometry" />
        </mxCell>
        <mxCell id="xoI9QJaOge4s5o_3HhD3-155" value="" style="endArrow=classic;html=1;rounded=0;exitX=0.5;exitY=0;exitDx=0;exitDy=0;" edge="1" parent="xoI9QJaOge4s5o_3HhD3-153" source="xoI9QJaOge4s5o_3HhD3-154">
          <mxGeometry width="50" height="50" relative="1" as="geometry">
            <mxPoint x="-150" y="170" as="sourcePoint" />
            <mxPoint x="10" as="targetPoint" />
          </mxGeometry>
        </mxCell>
        <mxCell id="xoI9QJaOge4s5o_3HhD3-156" value="" style="group" vertex="1" connectable="0" parent="1">
          <mxGeometry x="429" y="627" width="20" height="50" as="geometry" />
        </mxCell>
        <mxCell id="xoI9QJaOge4s5o_3HhD3-157" value="4" style="rounded=0;whiteSpace=wrap;html=1;fillColor=#99FF99;" vertex="1" parent="xoI9QJaOge4s5o_3HhD3-156">
          <mxGeometry y="30" width="20" height="20" as="geometry" />
        </mxCell>
        <mxCell id="xoI9QJaOge4s5o_3HhD3-158" value="" style="endArrow=classic;html=1;rounded=0;exitX=0.5;exitY=0;exitDx=0;exitDy=0;" edge="1" parent="xoI9QJaOge4s5o_3HhD3-156" source="xoI9QJaOge4s5o_3HhD3-157">
          <mxGeometry width="50" height="50" relative="1" as="geometry">
            <mxPoint x="-150" y="170" as="sourcePoint" />
            <mxPoint x="10" as="targetPoint" />
          </mxGeometry>
        </mxCell>
        <mxCell id="xoI9QJaOge4s5o_3HhD3-159" value="" style="group" vertex="1" connectable="0" parent="1">
          <mxGeometry x="369" y="627" width="20" height="50" as="geometry" />
        </mxCell>
        <mxCell id="xoI9QJaOge4s5o_3HhD3-160" value="3" style="rounded=0;whiteSpace=wrap;html=1;fillColor=#99FF99;" vertex="1" parent="xoI9QJaOge4s5o_3HhD3-159">
          <mxGeometry y="30" width="20" height="20" as="geometry" />
        </mxCell>
        <mxCell id="xoI9QJaOge4s5o_3HhD3-161" value="" style="endArrow=classic;html=1;rounded=0;exitX=0.5;exitY=0;exitDx=0;exitDy=0;" edge="1" parent="xoI9QJaOge4s5o_3HhD3-159" source="xoI9QJaOge4s5o_3HhD3-160">
          <mxGeometry width="50" height="50" relative="1" as="geometry">
            <mxPoint x="-150" y="170" as="sourcePoint" />
            <mxPoint x="10" as="targetPoint" />
          </mxGeometry>
        </mxCell>
        <mxCell id="xoI9QJaOge4s5o_3HhD3-162" value="" style="group" vertex="1" connectable="0" parent="1">
          <mxGeometry x="309" y="627" width="20" height="50" as="geometry" />
        </mxCell>
        <mxCell id="xoI9QJaOge4s5o_3HhD3-163" value="2" style="rounded=0;whiteSpace=wrap;html=1;fillColor=#FFFF00;" vertex="1" parent="xoI9QJaOge4s5o_3HhD3-162">
          <mxGeometry y="30" width="20" height="20" as="geometry" />
        </mxCell>
        <mxCell id="xoI9QJaOge4s5o_3HhD3-164" value="" style="endArrow=classic;html=1;rounded=0;exitX=0.5;exitY=0;exitDx=0;exitDy=0;" edge="1" parent="xoI9QJaOge4s5o_3HhD3-162" source="xoI9QJaOge4s5o_3HhD3-163">
          <mxGeometry width="50" height="50" relative="1" as="geometry">
            <mxPoint x="-150" y="170" as="sourcePoint" />
            <mxPoint x="10" as="targetPoint" />
          </mxGeometry>
        </mxCell>
        <mxCell id="xoI9QJaOge4s5o_3HhD3-165" value="" style="group" vertex="1" connectable="0" parent="1">
          <mxGeometry x="249" y="627" width="20" height="50" as="geometry" />
        </mxCell>
        <mxCell id="xoI9QJaOge4s5o_3HhD3-166" value="1" style="rounded=0;whiteSpace=wrap;html=1;fillColor=#FFFF00;" vertex="1" parent="xoI9QJaOge4s5o_3HhD3-165">
          <mxGeometry y="30" width="20" height="20" as="geometry" />
        </mxCell>
        <mxCell id="xoI9QJaOge4s5o_3HhD3-167" value="" style="endArrow=classic;html=1;rounded=0;exitX=0.5;exitY=0;exitDx=0;exitDy=0;" edge="1" parent="xoI9QJaOge4s5o_3HhD3-165" source="xoI9QJaOge4s5o_3HhD3-166">
          <mxGeometry width="50" height="50" relative="1" as="geometry">
            <mxPoint x="-150" y="170" as="sourcePoint" />
            <mxPoint x="10" as="targetPoint" />
          </mxGeometry>
        </mxCell>
        <mxCell id="xoI9QJaOge4s5o_3HhD3-168" value="下标：" style="rounded=1;whiteSpace=wrap;html=1;fillColor=#FFFFCC;" vertex="1" parent="1">
          <mxGeometry x="89" y="647" width="50" height="20" as="geometry" />
        </mxCell>
        <mxCell id="xoI9QJaOge4s5o_3HhD3-169" value="数组：" style="rounded=1;whiteSpace=wrap;html=1;fillColor=#FFFFCC;" vertex="1" parent="1">
          <mxGeometry x="89" y="587" width="50" height="20" as="geometry" />
        </mxCell>
        <mxCell id="xoI9QJaOge4s5o_3HhD3-170" value="&lt;font style=&quot;font-size: 14px;&quot;&gt;result:1&lt;/font&gt;" style="rounded=1;whiteSpace=wrap;html=1;fillColor=#66FFB3;" vertex="1" parent="1">
          <mxGeometry x="299" y="537" width="90" height="20" as="geometry" />
        </mxCell>
        <mxCell id="xoI9QJaOge4s5o_3HhD3-171" value="&lt;font style=&quot;font-size: 14px;&quot;&gt;thisMaxSub:-2&lt;/font&gt;" style="rounded=1;whiteSpace=wrap;html=1;fillColor=#66FFB3;" vertex="1" parent="1">
          <mxGeometry x="474" y="537" width="95" height="20" as="geometry" />
        </mxCell>
        <mxCell id="xoI9QJaOge4s5o_3HhD3-172" value="" style="shape=table;startSize=0;container=1;collapsible=0;childLayout=tableLayout;fontSize=16;fillColor=#99FF99;strokeWidth=5;strokeColor=#FFFFFF;" vertex="1" parent="1">
          <mxGeometry x="153" y="781" width="540" height="40" as="geometry" />
        </mxCell>
        <mxCell id="xoI9QJaOge4s5o_3HhD3-173" value="" style="shape=tableRow;horizontal=0;startSize=0;swimlaneHead=0;swimlaneBody=0;strokeColor=inherit;top=0;left=0;bottom=0;right=0;collapsible=0;dropTarget=0;fillColor=none;points=[[0,0.5],[1,0.5]];portConstraint=eastwest;fontSize=16;" vertex="1" parent="xoI9QJaOge4s5o_3HhD3-172">
          <mxGeometry width="540" height="40" as="geometry" />
        </mxCell>
        <mxCell id="xoI9QJaOge4s5o_3HhD3-174" value="-2" style="shape=partialRectangle;html=1;whiteSpace=wrap;connectable=0;strokeColor=inherit;overflow=hidden;fillColor=none;top=0;left=0;bottom=0;right=0;pointerEvents=1;fontSize=16;" vertex="1" parent="xoI9QJaOge4s5o_3HhD3-173">
          <mxGeometry width="60" height="40" as="geometry">
            <mxRectangle width="60" height="40" as="alternateBounds" />
          </mxGeometry>
        </mxCell>
        <mxCell id="xoI9QJaOge4s5o_3HhD3-175" value="1" style="shape=partialRectangle;html=1;whiteSpace=wrap;connectable=0;strokeColor=inherit;overflow=hidden;fillColor=none;top=0;left=0;bottom=0;right=0;pointerEvents=1;fontSize=16;" vertex="1" parent="xoI9QJaOge4s5o_3HhD3-173">
          <mxGeometry x="60" width="60" height="40" as="geometry">
            <mxRectangle width="60" height="40" as="alternateBounds" />
          </mxGeometry>
        </mxCell>
        <mxCell id="xoI9QJaOge4s5o_3HhD3-176" value="-3" style="shape=partialRectangle;html=1;whiteSpace=wrap;connectable=0;strokeColor=inherit;overflow=hidden;fillColor=none;top=0;left=0;bottom=0;right=0;pointerEvents=1;fontSize=16;" vertex="1" parent="xoI9QJaOge4s5o_3HhD3-173">
          <mxGeometry x="120" width="60" height="40" as="geometry">
            <mxRectangle width="60" height="40" as="alternateBounds" />
          </mxGeometry>
        </mxCell>
        <mxCell id="xoI9QJaOge4s5o_3HhD3-177" value="4" style="shape=partialRectangle;html=1;whiteSpace=wrap;connectable=0;strokeColor=inherit;overflow=hidden;fillColor=none;top=0;left=0;bottom=0;right=0;pointerEvents=1;fontSize=16;" vertex="1" parent="xoI9QJaOge4s5o_3HhD3-173">
          <mxGeometry x="180" width="60" height="40" as="geometry">
            <mxRectangle width="60" height="40" as="alternateBounds" />
          </mxGeometry>
        </mxCell>
        <mxCell id="xoI9QJaOge4s5o_3HhD3-178" value="-1" style="shape=partialRectangle;html=1;whiteSpace=wrap;connectable=0;strokeColor=inherit;overflow=hidden;fillColor=none;top=0;left=0;bottom=0;right=0;pointerEvents=1;fontSize=16;" vertex="1" parent="xoI9QJaOge4s5o_3HhD3-173">
          <mxGeometry x="240" width="60" height="40" as="geometry">
            <mxRectangle width="60" height="40" as="alternateBounds" />
          </mxGeometry>
        </mxCell>
        <mxCell id="xoI9QJaOge4s5o_3HhD3-179" value="2" style="shape=partialRectangle;html=1;whiteSpace=wrap;connectable=0;strokeColor=inherit;overflow=hidden;fillColor=none;top=0;left=0;bottom=0;right=0;pointerEvents=1;fontSize=16;" vertex="1" parent="xoI9QJaOge4s5o_3HhD3-173">
          <mxGeometry x="300" width="60" height="40" as="geometry">
            <mxRectangle width="60" height="40" as="alternateBounds" />
          </mxGeometry>
        </mxCell>
        <mxCell id="xoI9QJaOge4s5o_3HhD3-180" value="1" style="shape=partialRectangle;html=1;whiteSpace=wrap;connectable=0;strokeColor=inherit;overflow=hidden;fillColor=none;top=0;left=0;bottom=0;right=0;pointerEvents=1;fontSize=16;" vertex="1" parent="xoI9QJaOge4s5o_3HhD3-173">
          <mxGeometry x="360" width="60" height="40" as="geometry">
            <mxRectangle width="60" height="40" as="alternateBounds" />
          </mxGeometry>
        </mxCell>
        <mxCell id="xoI9QJaOge4s5o_3HhD3-181" value="-5" style="shape=partialRectangle;html=1;whiteSpace=wrap;connectable=0;strokeColor=inherit;overflow=hidden;fillColor=none;top=0;left=0;bottom=0;right=0;pointerEvents=1;fontSize=16;" vertex="1" parent="xoI9QJaOge4s5o_3HhD3-173">
          <mxGeometry x="420" width="60" height="40" as="geometry">
            <mxRectangle width="60" height="40" as="alternateBounds" />
          </mxGeometry>
        </mxCell>
        <mxCell id="xoI9QJaOge4s5o_3HhD3-182" value="4" style="shape=partialRectangle;html=1;whiteSpace=wrap;connectable=0;strokeColor=inherit;overflow=hidden;fillColor=none;top=0;left=0;bottom=0;right=0;pointerEvents=1;fontSize=16;" vertex="1" parent="xoI9QJaOge4s5o_3HhD3-173">
          <mxGeometry x="480" width="60" height="40" as="geometry">
            <mxRectangle width="60" height="40" as="alternateBounds" />
          </mxGeometry>
        </mxCell>
        <mxCell id="xoI9QJaOge4s5o_3HhD3-183" value="" style="group" vertex="1" connectable="0" parent="1">
          <mxGeometry x="173" y="831" width="20" height="50" as="geometry" />
        </mxCell>
        <mxCell id="xoI9QJaOge4s5o_3HhD3-184" value="0" style="rounded=0;whiteSpace=wrap;html=1;fillColor=#FF9999;" vertex="1" parent="xoI9QJaOge4s5o_3HhD3-183">
          <mxGeometry y="30" width="20" height="20" as="geometry" />
        </mxCell>
        <mxCell id="xoI9QJaOge4s5o_3HhD3-185" value="" style="endArrow=classic;html=1;rounded=0;exitX=0.5;exitY=0;exitDx=0;exitDy=0;" edge="1" parent="xoI9QJaOge4s5o_3HhD3-183" source="xoI9QJaOge4s5o_3HhD3-184">
          <mxGeometry width="50" height="50" relative="1" as="geometry">
            <mxPoint x="-150" y="170" as="sourcePoint" />
            <mxPoint x="10" as="targetPoint" />
          </mxGeometry>
        </mxCell>
        <mxCell id="xoI9QJaOge4s5o_3HhD3-186" value="" style="group" vertex="1" connectable="0" parent="1">
          <mxGeometry x="653" y="831" width="20" height="50" as="geometry" />
        </mxCell>
        <mxCell id="xoI9QJaOge4s5o_3HhD3-187" value="8" style="rounded=0;whiteSpace=wrap;html=1;fillColor=#99FF99;" vertex="1" parent="xoI9QJaOge4s5o_3HhD3-186">
          <mxGeometry y="30" width="20" height="20" as="geometry" />
        </mxCell>
        <mxCell id="xoI9QJaOge4s5o_3HhD3-188" value="" style="endArrow=classic;html=1;rounded=0;exitX=0.5;exitY=0;exitDx=0;exitDy=0;" edge="1" parent="xoI9QJaOge4s5o_3HhD3-186" source="xoI9QJaOge4s5o_3HhD3-187">
          <mxGeometry width="50" height="50" relative="1" as="geometry">
            <mxPoint x="-150" y="170" as="sourcePoint" />
            <mxPoint x="10" as="targetPoint" />
          </mxGeometry>
        </mxCell>
        <mxCell id="xoI9QJaOge4s5o_3HhD3-189" value="" style="group" vertex="1" connectable="0" parent="1">
          <mxGeometry x="593" y="831" width="20" height="50" as="geometry" />
        </mxCell>
        <mxCell id="xoI9QJaOge4s5o_3HhD3-190" value="7" style="rounded=0;whiteSpace=wrap;html=1;fillColor=#99FF99;" vertex="1" parent="xoI9QJaOge4s5o_3HhD3-189">
          <mxGeometry y="30" width="20" height="20" as="geometry" />
        </mxCell>
        <mxCell id="xoI9QJaOge4s5o_3HhD3-191" value="" style="endArrow=classic;html=1;rounded=0;exitX=0.5;exitY=0;exitDx=0;exitDy=0;" edge="1" parent="xoI9QJaOge4s5o_3HhD3-189" source="xoI9QJaOge4s5o_3HhD3-190">
          <mxGeometry width="50" height="50" relative="1" as="geometry">
            <mxPoint x="-150" y="170" as="sourcePoint" />
            <mxPoint x="10" as="targetPoint" />
          </mxGeometry>
        </mxCell>
        <mxCell id="xoI9QJaOge4s5o_3HhD3-192" value="" style="group" vertex="1" connectable="0" parent="1">
          <mxGeometry x="533" y="831" width="20" height="50" as="geometry" />
        </mxCell>
        <mxCell id="xoI9QJaOge4s5o_3HhD3-193" value="6" style="rounded=0;whiteSpace=wrap;html=1;fillColor=#99FF99;" vertex="1" parent="xoI9QJaOge4s5o_3HhD3-192">
          <mxGeometry y="30" width="20" height="20" as="geometry" />
        </mxCell>
        <mxCell id="xoI9QJaOge4s5o_3HhD3-194" value="" style="endArrow=classic;html=1;rounded=0;exitX=0.5;exitY=0;exitDx=0;exitDy=0;" edge="1" parent="xoI9QJaOge4s5o_3HhD3-192" source="xoI9QJaOge4s5o_3HhD3-193">
          <mxGeometry width="50" height="50" relative="1" as="geometry">
            <mxPoint x="-150" y="170" as="sourcePoint" />
            <mxPoint x="10" as="targetPoint" />
          </mxGeometry>
        </mxCell>
        <mxCell id="xoI9QJaOge4s5o_3HhD3-195" value="" style="group" vertex="1" connectable="0" parent="1">
          <mxGeometry x="473" y="831" width="20" height="50" as="geometry" />
        </mxCell>
        <mxCell id="xoI9QJaOge4s5o_3HhD3-196" value="5" style="rounded=0;whiteSpace=wrap;html=1;fillColor=#99FF99;" vertex="1" parent="xoI9QJaOge4s5o_3HhD3-195">
          <mxGeometry y="30" width="20" height="20" as="geometry" />
        </mxCell>
        <mxCell id="xoI9QJaOge4s5o_3HhD3-197" value="" style="endArrow=classic;html=1;rounded=0;exitX=0.5;exitY=0;exitDx=0;exitDy=0;" edge="1" parent="xoI9QJaOge4s5o_3HhD3-195" source="xoI9QJaOge4s5o_3HhD3-196">
          <mxGeometry width="50" height="50" relative="1" as="geometry">
            <mxPoint x="-150" y="170" as="sourcePoint" />
            <mxPoint x="10" as="targetPoint" />
          </mxGeometry>
        </mxCell>
        <mxCell id="xoI9QJaOge4s5o_3HhD3-198" value="" style="group" vertex="1" connectable="0" parent="1">
          <mxGeometry x="413" y="831" width="20" height="50" as="geometry" />
        </mxCell>
        <mxCell id="xoI9QJaOge4s5o_3HhD3-199" value="4" style="rounded=0;whiteSpace=wrap;html=1;fillColor=#99FF99;" vertex="1" parent="xoI9QJaOge4s5o_3HhD3-198">
          <mxGeometry y="30" width="20" height="20" as="geometry" />
        </mxCell>
        <mxCell id="xoI9QJaOge4s5o_3HhD3-200" value="" style="endArrow=classic;html=1;rounded=0;exitX=0.5;exitY=0;exitDx=0;exitDy=0;" edge="1" parent="xoI9QJaOge4s5o_3HhD3-198" source="xoI9QJaOge4s5o_3HhD3-199">
          <mxGeometry width="50" height="50" relative="1" as="geometry">
            <mxPoint x="-150" y="170" as="sourcePoint" />
            <mxPoint x="10" as="targetPoint" />
          </mxGeometry>
        </mxCell>
        <mxCell id="xoI9QJaOge4s5o_3HhD3-201" value="" style="group" vertex="1" connectable="0" parent="1">
          <mxGeometry x="353" y="831" width="20" height="50" as="geometry" />
        </mxCell>
        <mxCell id="xoI9QJaOge4s5o_3HhD3-202" value="3" style="rounded=0;whiteSpace=wrap;html=1;fillColor=#FFFF00;" vertex="1" parent="xoI9QJaOge4s5o_3HhD3-201">
          <mxGeometry y="30" width="20" height="20" as="geometry" />
        </mxCell>
        <mxCell id="xoI9QJaOge4s5o_3HhD3-203" value="" style="endArrow=classic;html=1;rounded=0;exitX=0.5;exitY=0;exitDx=0;exitDy=0;" edge="1" parent="xoI9QJaOge4s5o_3HhD3-201" source="xoI9QJaOge4s5o_3HhD3-202">
          <mxGeometry width="50" height="50" relative="1" as="geometry">
            <mxPoint x="-150" y="170" as="sourcePoint" />
            <mxPoint x="10" as="targetPoint" />
          </mxGeometry>
        </mxCell>
        <mxCell id="xoI9QJaOge4s5o_3HhD3-204" value="" style="group" vertex="1" connectable="0" parent="1">
          <mxGeometry x="293" y="831" width="20" height="50" as="geometry" />
        </mxCell>
        <mxCell id="xoI9QJaOge4s5o_3HhD3-205" value="2" style="rounded=0;whiteSpace=wrap;html=1;fillColor=#FF9999;" vertex="1" parent="xoI9QJaOge4s5o_3HhD3-204">
          <mxGeometry y="30" width="20" height="20" as="geometry" />
        </mxCell>
        <mxCell id="xoI9QJaOge4s5o_3HhD3-206" value="" style="endArrow=classic;html=1;rounded=0;exitX=0.5;exitY=0;exitDx=0;exitDy=0;" edge="1" parent="xoI9QJaOge4s5o_3HhD3-204" source="xoI9QJaOge4s5o_3HhD3-205">
          <mxGeometry width="50" height="50" relative="1" as="geometry">
            <mxPoint x="-150" y="170" as="sourcePoint" />
            <mxPoint x="10" as="targetPoint" />
          </mxGeometry>
        </mxCell>
        <mxCell id="xoI9QJaOge4s5o_3HhD3-207" value="" style="group" vertex="1" connectable="0" parent="1">
          <mxGeometry x="233" y="831" width="20" height="50" as="geometry" />
        </mxCell>
        <mxCell id="xoI9QJaOge4s5o_3HhD3-208" value="1" style="rounded=0;whiteSpace=wrap;html=1;fillColor=#FF9999;" vertex="1" parent="xoI9QJaOge4s5o_3HhD3-207">
          <mxGeometry y="30" width="20" height="20" as="geometry" />
        </mxCell>
        <mxCell id="xoI9QJaOge4s5o_3HhD3-209" value="" style="endArrow=classic;html=1;rounded=0;exitX=0.5;exitY=0;exitDx=0;exitDy=0;" edge="1" parent="xoI9QJaOge4s5o_3HhD3-207" source="xoI9QJaOge4s5o_3HhD3-208">
          <mxGeometry width="50" height="50" relative="1" as="geometry">
            <mxPoint x="-150" y="170" as="sourcePoint" />
            <mxPoint x="10" as="targetPoint" />
          </mxGeometry>
        </mxCell>
        <mxCell id="xoI9QJaOge4s5o_3HhD3-210" value="下标：" style="rounded=1;whiteSpace=wrap;html=1;fillColor=#FFFFCC;" vertex="1" parent="1">
          <mxGeometry x="73" y="851" width="50" height="20" as="geometry" />
        </mxCell>
        <mxCell id="xoI9QJaOge4s5o_3HhD3-211" value="数组：" style="rounded=1;whiteSpace=wrap;html=1;fillColor=#FFFFCC;" vertex="1" parent="1">
          <mxGeometry x="73" y="791" width="50" height="20" as="geometry" />
        </mxCell>
        <mxCell id="xoI9QJaOge4s5o_3HhD3-212" value="&lt;font style=&quot;font-size: 14px;&quot;&gt;result:4&lt;/font&gt;" style="rounded=1;whiteSpace=wrap;html=1;fillColor=#66FFB3;" vertex="1" parent="1">
          <mxGeometry x="283" y="741" width="90" height="20" as="geometry" />
        </mxCell>
        <mxCell id="xoI9QJaOge4s5o_3HhD3-213" value="&lt;font style=&quot;font-size: 14px;&quot;&gt;thisMaxSub:4&lt;/font&gt;" style="rounded=1;whiteSpace=wrap;html=1;fillColor=#66FFB3;" vertex="1" parent="1">
          <mxGeometry x="458" y="741" width="95" height="20" as="geometry" />
        </mxCell>
        <mxCell id="xoI9QJaOge4s5o_3HhD3-214" value="" style="shape=table;startSize=0;container=1;collapsible=0;childLayout=tableLayout;fontSize=16;fillColor=#99FF99;strokeWidth=5;strokeColor=#FFFFFF;" vertex="1" parent="1">
          <mxGeometry x="153" y="973" width="540" height="40" as="geometry" />
        </mxCell>
        <mxCell id="xoI9QJaOge4s5o_3HhD3-215" value="" style="shape=tableRow;horizontal=0;startSize=0;swimlaneHead=0;swimlaneBody=0;strokeColor=inherit;top=0;left=0;bottom=0;right=0;collapsible=0;dropTarget=0;fillColor=none;points=[[0,0.5],[1,0.5]];portConstraint=eastwest;fontSize=16;" vertex="1" parent="xoI9QJaOge4s5o_3HhD3-214">
          <mxGeometry width="540" height="40" as="geometry" />
        </mxCell>
        <mxCell id="xoI9QJaOge4s5o_3HhD3-216" value="-2" style="shape=partialRectangle;html=1;whiteSpace=wrap;connectable=0;strokeColor=inherit;overflow=hidden;fillColor=none;top=0;left=0;bottom=0;right=0;pointerEvents=1;fontSize=16;" vertex="1" parent="xoI9QJaOge4s5o_3HhD3-215">
          <mxGeometry width="60" height="40" as="geometry">
            <mxRectangle width="60" height="40" as="alternateBounds" />
          </mxGeometry>
        </mxCell>
        <mxCell id="xoI9QJaOge4s5o_3HhD3-217" value="1" style="shape=partialRectangle;html=1;whiteSpace=wrap;connectable=0;strokeColor=inherit;overflow=hidden;fillColor=none;top=0;left=0;bottom=0;right=0;pointerEvents=1;fontSize=16;" vertex="1" parent="xoI9QJaOge4s5o_3HhD3-215">
          <mxGeometry x="60" width="60" height="40" as="geometry">
            <mxRectangle width="60" height="40" as="alternateBounds" />
          </mxGeometry>
        </mxCell>
        <mxCell id="xoI9QJaOge4s5o_3HhD3-218" value="-3" style="shape=partialRectangle;html=1;whiteSpace=wrap;connectable=0;strokeColor=inherit;overflow=hidden;fillColor=none;top=0;left=0;bottom=0;right=0;pointerEvents=1;fontSize=16;" vertex="1" parent="xoI9QJaOge4s5o_3HhD3-215">
          <mxGeometry x="120" width="60" height="40" as="geometry">
            <mxRectangle width="60" height="40" as="alternateBounds" />
          </mxGeometry>
        </mxCell>
        <mxCell id="xoI9QJaOge4s5o_3HhD3-219" value="4" style="shape=partialRectangle;html=1;whiteSpace=wrap;connectable=0;strokeColor=inherit;overflow=hidden;fillColor=none;top=0;left=0;bottom=0;right=0;pointerEvents=1;fontSize=16;" vertex="1" parent="xoI9QJaOge4s5o_3HhD3-215">
          <mxGeometry x="180" width="60" height="40" as="geometry">
            <mxRectangle width="60" height="40" as="alternateBounds" />
          </mxGeometry>
        </mxCell>
        <mxCell id="xoI9QJaOge4s5o_3HhD3-220" value="-1" style="shape=partialRectangle;html=1;whiteSpace=wrap;connectable=0;strokeColor=inherit;overflow=hidden;fillColor=none;top=0;left=0;bottom=0;right=0;pointerEvents=1;fontSize=16;" vertex="1" parent="xoI9QJaOge4s5o_3HhD3-215">
          <mxGeometry x="240" width="60" height="40" as="geometry">
            <mxRectangle width="60" height="40" as="alternateBounds" />
          </mxGeometry>
        </mxCell>
        <mxCell id="xoI9QJaOge4s5o_3HhD3-221" value="2" style="shape=partialRectangle;html=1;whiteSpace=wrap;connectable=0;strokeColor=inherit;overflow=hidden;fillColor=none;top=0;left=0;bottom=0;right=0;pointerEvents=1;fontSize=16;" vertex="1" parent="xoI9QJaOge4s5o_3HhD3-215">
          <mxGeometry x="300" width="60" height="40" as="geometry">
            <mxRectangle width="60" height="40" as="alternateBounds" />
          </mxGeometry>
        </mxCell>
        <mxCell id="xoI9QJaOge4s5o_3HhD3-222" value="1" style="shape=partialRectangle;html=1;whiteSpace=wrap;connectable=0;strokeColor=inherit;overflow=hidden;fillColor=none;top=0;left=0;bottom=0;right=0;pointerEvents=1;fontSize=16;" vertex="1" parent="xoI9QJaOge4s5o_3HhD3-215">
          <mxGeometry x="360" width="60" height="40" as="geometry">
            <mxRectangle width="60" height="40" as="alternateBounds" />
          </mxGeometry>
        </mxCell>
        <mxCell id="xoI9QJaOge4s5o_3HhD3-223" value="-5" style="shape=partialRectangle;html=1;whiteSpace=wrap;connectable=0;strokeColor=inherit;overflow=hidden;fillColor=none;top=0;left=0;bottom=0;right=0;pointerEvents=1;fontSize=16;" vertex="1" parent="xoI9QJaOge4s5o_3HhD3-215">
          <mxGeometry x="420" width="60" height="40" as="geometry">
            <mxRectangle width="60" height="40" as="alternateBounds" />
          </mxGeometry>
        </mxCell>
        <mxCell id="xoI9QJaOge4s5o_3HhD3-224" value="4" style="shape=partialRectangle;html=1;whiteSpace=wrap;connectable=0;strokeColor=inherit;overflow=hidden;fillColor=none;top=0;left=0;bottom=0;right=0;pointerEvents=1;fontSize=16;" vertex="1" parent="xoI9QJaOge4s5o_3HhD3-215">
          <mxGeometry x="480" width="60" height="40" as="geometry">
            <mxRectangle width="60" height="40" as="alternateBounds" />
          </mxGeometry>
        </mxCell>
        <mxCell id="xoI9QJaOge4s5o_3HhD3-225" value="" style="group" vertex="1" connectable="0" parent="1">
          <mxGeometry x="173" y="1023" width="20" height="50" as="geometry" />
        </mxCell>
        <mxCell id="xoI9QJaOge4s5o_3HhD3-226" value="0" style="rounded=0;whiteSpace=wrap;html=1;fillColor=#FF9999;" vertex="1" parent="xoI9QJaOge4s5o_3HhD3-225">
          <mxGeometry y="30" width="20" height="20" as="geometry" />
        </mxCell>
        <mxCell id="xoI9QJaOge4s5o_3HhD3-227" value="" style="endArrow=classic;html=1;rounded=0;exitX=0.5;exitY=0;exitDx=0;exitDy=0;" edge="1" parent="xoI9QJaOge4s5o_3HhD3-225" source="xoI9QJaOge4s5o_3HhD3-226">
          <mxGeometry width="50" height="50" relative="1" as="geometry">
            <mxPoint x="-150" y="170" as="sourcePoint" />
            <mxPoint x="10" as="targetPoint" />
          </mxGeometry>
        </mxCell>
        <mxCell id="xoI9QJaOge4s5o_3HhD3-228" value="" style="group" vertex="1" connectable="0" parent="1">
          <mxGeometry x="653" y="1023" width="20" height="50" as="geometry" />
        </mxCell>
        <mxCell id="xoI9QJaOge4s5o_3HhD3-229" value="8" style="rounded=0;whiteSpace=wrap;html=1;fillColor=#99FF99;" vertex="1" parent="xoI9QJaOge4s5o_3HhD3-228">
          <mxGeometry y="30" width="20" height="20" as="geometry" />
        </mxCell>
        <mxCell id="xoI9QJaOge4s5o_3HhD3-230" value="" style="endArrow=classic;html=1;rounded=0;exitX=0.5;exitY=0;exitDx=0;exitDy=0;" edge="1" parent="xoI9QJaOge4s5o_3HhD3-228" source="xoI9QJaOge4s5o_3HhD3-229">
          <mxGeometry width="50" height="50" relative="1" as="geometry">
            <mxPoint x="-150" y="170" as="sourcePoint" />
            <mxPoint x="10" as="targetPoint" />
          </mxGeometry>
        </mxCell>
        <mxCell id="xoI9QJaOge4s5o_3HhD3-231" value="" style="group" vertex="1" connectable="0" parent="1">
          <mxGeometry x="593" y="1023" width="20" height="50" as="geometry" />
        </mxCell>
        <mxCell id="xoI9QJaOge4s5o_3HhD3-232" value="7" style="rounded=0;whiteSpace=wrap;html=1;fillColor=#99FF99;" vertex="1" parent="xoI9QJaOge4s5o_3HhD3-231">
          <mxGeometry y="30" width="20" height="20" as="geometry" />
        </mxCell>
        <mxCell id="xoI9QJaOge4s5o_3HhD3-233" value="" style="endArrow=classic;html=1;rounded=0;exitX=0.5;exitY=0;exitDx=0;exitDy=0;" edge="1" parent="xoI9QJaOge4s5o_3HhD3-231" source="xoI9QJaOge4s5o_3HhD3-232">
          <mxGeometry width="50" height="50" relative="1" as="geometry">
            <mxPoint x="-150" y="170" as="sourcePoint" />
            <mxPoint x="10" as="targetPoint" />
          </mxGeometry>
        </mxCell>
        <mxCell id="xoI9QJaOge4s5o_3HhD3-234" value="" style="group" vertex="1" connectable="0" parent="1">
          <mxGeometry x="533" y="1023" width="20" height="50" as="geometry" />
        </mxCell>
        <mxCell id="xoI9QJaOge4s5o_3HhD3-235" value="6" style="rounded=0;whiteSpace=wrap;html=1;fillColor=#99FF99;" vertex="1" parent="xoI9QJaOge4s5o_3HhD3-234">
          <mxGeometry y="30" width="20" height="20" as="geometry" />
        </mxCell>
        <mxCell id="xoI9QJaOge4s5o_3HhD3-236" value="" style="endArrow=classic;html=1;rounded=0;exitX=0.5;exitY=0;exitDx=0;exitDy=0;" edge="1" parent="xoI9QJaOge4s5o_3HhD3-234" source="xoI9QJaOge4s5o_3HhD3-235">
          <mxGeometry width="50" height="50" relative="1" as="geometry">
            <mxPoint x="-150" y="170" as="sourcePoint" />
            <mxPoint x="10" as="targetPoint" />
          </mxGeometry>
        </mxCell>
        <mxCell id="xoI9QJaOge4s5o_3HhD3-237" value="" style="group" vertex="1" connectable="0" parent="1">
          <mxGeometry x="473" y="1023" width="20" height="50" as="geometry" />
        </mxCell>
        <mxCell id="xoI9QJaOge4s5o_3HhD3-238" value="5" style="rounded=0;whiteSpace=wrap;html=1;fillColor=#99FF99;" vertex="1" parent="xoI9QJaOge4s5o_3HhD3-237">
          <mxGeometry y="30" width="20" height="20" as="geometry" />
        </mxCell>
        <mxCell id="xoI9QJaOge4s5o_3HhD3-239" value="" style="endArrow=classic;html=1;rounded=0;exitX=0.5;exitY=0;exitDx=0;exitDy=0;" edge="1" parent="xoI9QJaOge4s5o_3HhD3-237" source="xoI9QJaOge4s5o_3HhD3-238">
          <mxGeometry width="50" height="50" relative="1" as="geometry">
            <mxPoint x="-150" y="170" as="sourcePoint" />
            <mxPoint x="10" as="targetPoint" />
          </mxGeometry>
        </mxCell>
        <mxCell id="xoI9QJaOge4s5o_3HhD3-240" value="" style="group" vertex="1" connectable="0" parent="1">
          <mxGeometry x="413" y="1023" width="20" height="50" as="geometry" />
        </mxCell>
        <mxCell id="xoI9QJaOge4s5o_3HhD3-241" value="4" style="rounded=0;whiteSpace=wrap;html=1;fillColor=#FFFF00;" vertex="1" parent="xoI9QJaOge4s5o_3HhD3-240">
          <mxGeometry y="30" width="20" height="20" as="geometry" />
        </mxCell>
        <mxCell id="xoI9QJaOge4s5o_3HhD3-242" value="" style="endArrow=classic;html=1;rounded=0;exitX=0.5;exitY=0;exitDx=0;exitDy=0;" edge="1" parent="xoI9QJaOge4s5o_3HhD3-240" source="xoI9QJaOge4s5o_3HhD3-241">
          <mxGeometry width="50" height="50" relative="1" as="geometry">
            <mxPoint x="-150" y="170" as="sourcePoint" />
            <mxPoint x="10" as="targetPoint" />
          </mxGeometry>
        </mxCell>
        <mxCell id="xoI9QJaOge4s5o_3HhD3-243" value="" style="group" vertex="1" connectable="0" parent="1">
          <mxGeometry x="353" y="1023" width="20" height="50" as="geometry" />
        </mxCell>
        <mxCell id="xoI9QJaOge4s5o_3HhD3-244" value="3" style="rounded=0;whiteSpace=wrap;html=1;fillColor=#FFFF00;" vertex="1" parent="xoI9QJaOge4s5o_3HhD3-243">
          <mxGeometry y="30" width="20" height="20" as="geometry" />
        </mxCell>
        <mxCell id="xoI9QJaOge4s5o_3HhD3-245" value="" style="endArrow=classic;html=1;rounded=0;exitX=0.5;exitY=0;exitDx=0;exitDy=0;" edge="1" parent="xoI9QJaOge4s5o_3HhD3-243" source="xoI9QJaOge4s5o_3HhD3-244">
          <mxGeometry width="50" height="50" relative="1" as="geometry">
            <mxPoint x="-150" y="170" as="sourcePoint" />
            <mxPoint x="10" as="targetPoint" />
          </mxGeometry>
        </mxCell>
        <mxCell id="xoI9QJaOge4s5o_3HhD3-246" value="" style="group" vertex="1" connectable="0" parent="1">
          <mxGeometry x="293" y="1023" width="20" height="50" as="geometry" />
        </mxCell>
        <mxCell id="xoI9QJaOge4s5o_3HhD3-247" value="2" style="rounded=0;whiteSpace=wrap;html=1;fillColor=#FF9999;" vertex="1" parent="xoI9QJaOge4s5o_3HhD3-246">
          <mxGeometry y="30" width="20" height="20" as="geometry" />
        </mxCell>
        <mxCell id="xoI9QJaOge4s5o_3HhD3-248" value="" style="endArrow=classic;html=1;rounded=0;exitX=0.5;exitY=0;exitDx=0;exitDy=0;" edge="1" parent="xoI9QJaOge4s5o_3HhD3-246" source="xoI9QJaOge4s5o_3HhD3-247">
          <mxGeometry width="50" height="50" relative="1" as="geometry">
            <mxPoint x="-150" y="170" as="sourcePoint" />
            <mxPoint x="10" as="targetPoint" />
          </mxGeometry>
        </mxCell>
        <mxCell id="xoI9QJaOge4s5o_3HhD3-249" value="" style="group" vertex="1" connectable="0" parent="1">
          <mxGeometry x="233" y="1023" width="20" height="50" as="geometry" />
        </mxCell>
        <mxCell id="xoI9QJaOge4s5o_3HhD3-250" value="1" style="rounded=0;whiteSpace=wrap;html=1;fillColor=#FF9999;" vertex="1" parent="xoI9QJaOge4s5o_3HhD3-249">
          <mxGeometry y="30" width="20" height="20" as="geometry" />
        </mxCell>
        <mxCell id="xoI9QJaOge4s5o_3HhD3-251" value="" style="endArrow=classic;html=1;rounded=0;exitX=0.5;exitY=0;exitDx=0;exitDy=0;" edge="1" parent="xoI9QJaOge4s5o_3HhD3-249" source="xoI9QJaOge4s5o_3HhD3-250">
          <mxGeometry width="50" height="50" relative="1" as="geometry">
            <mxPoint x="-150" y="170" as="sourcePoint" />
            <mxPoint x="10" as="targetPoint" />
          </mxGeometry>
        </mxCell>
        <mxCell id="xoI9QJaOge4s5o_3HhD3-252" value="下标：" style="rounded=1;whiteSpace=wrap;html=1;fillColor=#FFFFCC;" vertex="1" parent="1">
          <mxGeometry x="73" y="1043" width="50" height="20" as="geometry" />
        </mxCell>
        <mxCell id="xoI9QJaOge4s5o_3HhD3-253" value="数组：" style="rounded=1;whiteSpace=wrap;html=1;fillColor=#FFFFCC;" vertex="1" parent="1">
          <mxGeometry x="73" y="983" width="50" height="20" as="geometry" />
        </mxCell>
        <mxCell id="xoI9QJaOge4s5o_3HhD3-254" value="&lt;font style=&quot;font-size: 14px;&quot;&gt;result:4&lt;/font&gt;" style="rounded=1;whiteSpace=wrap;html=1;fillColor=#66FFB3;" vertex="1" parent="1">
          <mxGeometry x="283" y="933" width="90" height="20" as="geometry" />
        </mxCell>
        <mxCell id="xoI9QJaOge4s5o_3HhD3-255" value="&lt;font style=&quot;font-size: 14px;&quot;&gt;thisMaxSub:3&lt;/font&gt;" style="rounded=1;whiteSpace=wrap;html=1;fillColor=#66FFB3;" vertex="1" parent="1">
          <mxGeometry x="458" y="933" width="95" height="20" as="geometry" />
        </mxCell>
        <mxCell id="xoI9QJaOge4s5o_3HhD3-256" value="" style="shape=table;startSize=0;container=1;collapsible=0;childLayout=tableLayout;fontSize=16;fillColor=#99FF99;strokeWidth=5;strokeColor=#FFFFFF;" vertex="1" parent="1">
          <mxGeometry x="160" y="1161" width="540" height="40" as="geometry" />
        </mxCell>
        <mxCell id="xoI9QJaOge4s5o_3HhD3-257" value="" style="shape=tableRow;horizontal=0;startSize=0;swimlaneHead=0;swimlaneBody=0;strokeColor=inherit;top=0;left=0;bottom=0;right=0;collapsible=0;dropTarget=0;fillColor=none;points=[[0,0.5],[1,0.5]];portConstraint=eastwest;fontSize=16;" vertex="1" parent="xoI9QJaOge4s5o_3HhD3-256">
          <mxGeometry width="540" height="40" as="geometry" />
        </mxCell>
        <mxCell id="xoI9QJaOge4s5o_3HhD3-258" value="-2" style="shape=partialRectangle;html=1;whiteSpace=wrap;connectable=0;strokeColor=inherit;overflow=hidden;fillColor=none;top=0;left=0;bottom=0;right=0;pointerEvents=1;fontSize=16;" vertex="1" parent="xoI9QJaOge4s5o_3HhD3-257">
          <mxGeometry width="60" height="40" as="geometry">
            <mxRectangle width="60" height="40" as="alternateBounds" />
          </mxGeometry>
        </mxCell>
        <mxCell id="xoI9QJaOge4s5o_3HhD3-259" value="1" style="shape=partialRectangle;html=1;whiteSpace=wrap;connectable=0;strokeColor=inherit;overflow=hidden;fillColor=none;top=0;left=0;bottom=0;right=0;pointerEvents=1;fontSize=16;" vertex="1" parent="xoI9QJaOge4s5o_3HhD3-257">
          <mxGeometry x="60" width="60" height="40" as="geometry">
            <mxRectangle width="60" height="40" as="alternateBounds" />
          </mxGeometry>
        </mxCell>
        <mxCell id="xoI9QJaOge4s5o_3HhD3-260" value="-3" style="shape=partialRectangle;html=1;whiteSpace=wrap;connectable=0;strokeColor=inherit;overflow=hidden;fillColor=none;top=0;left=0;bottom=0;right=0;pointerEvents=1;fontSize=16;" vertex="1" parent="xoI9QJaOge4s5o_3HhD3-257">
          <mxGeometry x="120" width="60" height="40" as="geometry">
            <mxRectangle width="60" height="40" as="alternateBounds" />
          </mxGeometry>
        </mxCell>
        <mxCell id="xoI9QJaOge4s5o_3HhD3-261" value="4" style="shape=partialRectangle;html=1;whiteSpace=wrap;connectable=0;strokeColor=inherit;overflow=hidden;fillColor=none;top=0;left=0;bottom=0;right=0;pointerEvents=1;fontSize=16;" vertex="1" parent="xoI9QJaOge4s5o_3HhD3-257">
          <mxGeometry x="180" width="60" height="40" as="geometry">
            <mxRectangle width="60" height="40" as="alternateBounds" />
          </mxGeometry>
        </mxCell>
        <mxCell id="xoI9QJaOge4s5o_3HhD3-262" value="-1" style="shape=partialRectangle;html=1;whiteSpace=wrap;connectable=0;strokeColor=inherit;overflow=hidden;fillColor=none;top=0;left=0;bottom=0;right=0;pointerEvents=1;fontSize=16;" vertex="1" parent="xoI9QJaOge4s5o_3HhD3-257">
          <mxGeometry x="240" width="60" height="40" as="geometry">
            <mxRectangle width="60" height="40" as="alternateBounds" />
          </mxGeometry>
        </mxCell>
        <mxCell id="xoI9QJaOge4s5o_3HhD3-263" value="2" style="shape=partialRectangle;html=1;whiteSpace=wrap;connectable=0;strokeColor=inherit;overflow=hidden;fillColor=none;top=0;left=0;bottom=0;right=0;pointerEvents=1;fontSize=16;" vertex="1" parent="xoI9QJaOge4s5o_3HhD3-257">
          <mxGeometry x="300" width="60" height="40" as="geometry">
            <mxRectangle width="60" height="40" as="alternateBounds" />
          </mxGeometry>
        </mxCell>
        <mxCell id="xoI9QJaOge4s5o_3HhD3-264" value="1" style="shape=partialRectangle;html=1;whiteSpace=wrap;connectable=0;strokeColor=inherit;overflow=hidden;fillColor=none;top=0;left=0;bottom=0;right=0;pointerEvents=1;fontSize=16;" vertex="1" parent="xoI9QJaOge4s5o_3HhD3-257">
          <mxGeometry x="360" width="60" height="40" as="geometry">
            <mxRectangle width="60" height="40" as="alternateBounds" />
          </mxGeometry>
        </mxCell>
        <mxCell id="xoI9QJaOge4s5o_3HhD3-265" value="-5" style="shape=partialRectangle;html=1;whiteSpace=wrap;connectable=0;strokeColor=inherit;overflow=hidden;fillColor=none;top=0;left=0;bottom=0;right=0;pointerEvents=1;fontSize=16;" vertex="1" parent="xoI9QJaOge4s5o_3HhD3-257">
          <mxGeometry x="420" width="60" height="40" as="geometry">
            <mxRectangle width="60" height="40" as="alternateBounds" />
          </mxGeometry>
        </mxCell>
        <mxCell id="xoI9QJaOge4s5o_3HhD3-266" value="4" style="shape=partialRectangle;html=1;whiteSpace=wrap;connectable=0;strokeColor=inherit;overflow=hidden;fillColor=none;top=0;left=0;bottom=0;right=0;pointerEvents=1;fontSize=16;" vertex="1" parent="xoI9QJaOge4s5o_3HhD3-257">
          <mxGeometry x="480" width="60" height="40" as="geometry">
            <mxRectangle width="60" height="40" as="alternateBounds" />
          </mxGeometry>
        </mxCell>
        <mxCell id="xoI9QJaOge4s5o_3HhD3-267" value="" style="group" vertex="1" connectable="0" parent="1">
          <mxGeometry x="180" y="1211" width="20" height="50" as="geometry" />
        </mxCell>
        <mxCell id="xoI9QJaOge4s5o_3HhD3-268" value="0" style="rounded=0;whiteSpace=wrap;html=1;fillColor=#FF9999;" vertex="1" parent="xoI9QJaOge4s5o_3HhD3-267">
          <mxGeometry y="30" width="20" height="20" as="geometry" />
        </mxCell>
        <mxCell id="xoI9QJaOge4s5o_3HhD3-269" value="" style="endArrow=classic;html=1;rounded=0;exitX=0.5;exitY=0;exitDx=0;exitDy=0;" edge="1" parent="xoI9QJaOge4s5o_3HhD3-267" source="xoI9QJaOge4s5o_3HhD3-268">
          <mxGeometry width="50" height="50" relative="1" as="geometry">
            <mxPoint x="-150" y="170" as="sourcePoint" />
            <mxPoint x="10" as="targetPoint" />
          </mxGeometry>
        </mxCell>
        <mxCell id="xoI9QJaOge4s5o_3HhD3-270" value="" style="group" vertex="1" connectable="0" parent="1">
          <mxGeometry x="660" y="1211" width="20" height="50" as="geometry" />
        </mxCell>
        <mxCell id="xoI9QJaOge4s5o_3HhD3-271" value="8" style="rounded=0;whiteSpace=wrap;html=1;fillColor=#99FF99;" vertex="1" parent="xoI9QJaOge4s5o_3HhD3-270">
          <mxGeometry y="30" width="20" height="20" as="geometry" />
        </mxCell>
        <mxCell id="xoI9QJaOge4s5o_3HhD3-272" value="" style="endArrow=classic;html=1;rounded=0;exitX=0.5;exitY=0;exitDx=0;exitDy=0;" edge="1" parent="xoI9QJaOge4s5o_3HhD3-270" source="xoI9QJaOge4s5o_3HhD3-271">
          <mxGeometry width="50" height="50" relative="1" as="geometry">
            <mxPoint x="-150" y="170" as="sourcePoint" />
            <mxPoint x="10" as="targetPoint" />
          </mxGeometry>
        </mxCell>
        <mxCell id="xoI9QJaOge4s5o_3HhD3-273" value="" style="group" vertex="1" connectable="0" parent="1">
          <mxGeometry x="600" y="1211" width="20" height="50" as="geometry" />
        </mxCell>
        <mxCell id="xoI9QJaOge4s5o_3HhD3-274" value="7" style="rounded=0;whiteSpace=wrap;html=1;fillColor=#99FF99;" vertex="1" parent="xoI9QJaOge4s5o_3HhD3-273">
          <mxGeometry y="30" width="20" height="20" as="geometry" />
        </mxCell>
        <mxCell id="xoI9QJaOge4s5o_3HhD3-275" value="" style="endArrow=classic;html=1;rounded=0;exitX=0.5;exitY=0;exitDx=0;exitDy=0;" edge="1" parent="xoI9QJaOge4s5o_3HhD3-273" source="xoI9QJaOge4s5o_3HhD3-274">
          <mxGeometry width="50" height="50" relative="1" as="geometry">
            <mxPoint x="-150" y="170" as="sourcePoint" />
            <mxPoint x="10" as="targetPoint" />
          </mxGeometry>
        </mxCell>
        <mxCell id="xoI9QJaOge4s5o_3HhD3-276" value="" style="group" vertex="1" connectable="0" parent="1">
          <mxGeometry x="540" y="1211" width="20" height="50" as="geometry" />
        </mxCell>
        <mxCell id="xoI9QJaOge4s5o_3HhD3-277" value="6" style="rounded=0;whiteSpace=wrap;html=1;fillColor=#99FF99;" vertex="1" parent="xoI9QJaOge4s5o_3HhD3-276">
          <mxGeometry y="30" width="20" height="20" as="geometry" />
        </mxCell>
        <mxCell id="xoI9QJaOge4s5o_3HhD3-278" value="" style="endArrow=classic;html=1;rounded=0;exitX=0.5;exitY=0;exitDx=0;exitDy=0;" edge="1" parent="xoI9QJaOge4s5o_3HhD3-276" source="xoI9QJaOge4s5o_3HhD3-277">
          <mxGeometry width="50" height="50" relative="1" as="geometry">
            <mxPoint x="-150" y="170" as="sourcePoint" />
            <mxPoint x="10" as="targetPoint" />
          </mxGeometry>
        </mxCell>
        <mxCell id="xoI9QJaOge4s5o_3HhD3-279" value="" style="group" vertex="1" connectable="0" parent="1">
          <mxGeometry x="480" y="1211" width="20" height="50" as="geometry" />
        </mxCell>
        <mxCell id="xoI9QJaOge4s5o_3HhD3-280" value="5" style="rounded=0;whiteSpace=wrap;html=1;fillColor=#FFFF00;" vertex="1" parent="xoI9QJaOge4s5o_3HhD3-279">
          <mxGeometry y="30" width="20" height="20" as="geometry" />
        </mxCell>
        <mxCell id="xoI9QJaOge4s5o_3HhD3-281" value="" style="endArrow=classic;html=1;rounded=0;exitX=0.5;exitY=0;exitDx=0;exitDy=0;" edge="1" parent="xoI9QJaOge4s5o_3HhD3-279" source="xoI9QJaOge4s5o_3HhD3-280">
          <mxGeometry width="50" height="50" relative="1" as="geometry">
            <mxPoint x="-150" y="170" as="sourcePoint" />
            <mxPoint x="10" as="targetPoint" />
          </mxGeometry>
        </mxCell>
        <mxCell id="xoI9QJaOge4s5o_3HhD3-282" value="" style="group" vertex="1" connectable="0" parent="1">
          <mxGeometry x="420" y="1211" width="20" height="50" as="geometry" />
        </mxCell>
        <mxCell id="xoI9QJaOge4s5o_3HhD3-283" value="4" style="rounded=0;whiteSpace=wrap;html=1;fillColor=#FFFF00;" vertex="1" parent="xoI9QJaOge4s5o_3HhD3-282">
          <mxGeometry y="30" width="20" height="20" as="geometry" />
        </mxCell>
        <mxCell id="xoI9QJaOge4s5o_3HhD3-284" value="" style="endArrow=classic;html=1;rounded=0;exitX=0.5;exitY=0;exitDx=0;exitDy=0;" edge="1" parent="xoI9QJaOge4s5o_3HhD3-282" source="xoI9QJaOge4s5o_3HhD3-283">
          <mxGeometry width="50" height="50" relative="1" as="geometry">
            <mxPoint x="-150" y="170" as="sourcePoint" />
            <mxPoint x="10" as="targetPoint" />
          </mxGeometry>
        </mxCell>
        <mxCell id="xoI9QJaOge4s5o_3HhD3-285" value="" style="group" vertex="1" connectable="0" parent="1">
          <mxGeometry x="360" y="1211" width="20" height="50" as="geometry" />
        </mxCell>
        <mxCell id="xoI9QJaOge4s5o_3HhD3-286" value="3" style="rounded=0;whiteSpace=wrap;html=1;fillColor=#FFFF00;" vertex="1" parent="xoI9QJaOge4s5o_3HhD3-285">
          <mxGeometry y="30" width="20" height="20" as="geometry" />
        </mxCell>
        <mxCell id="xoI9QJaOge4s5o_3HhD3-287" value="" style="endArrow=classic;html=1;rounded=0;exitX=0.5;exitY=0;exitDx=0;exitDy=0;" edge="1" parent="xoI9QJaOge4s5o_3HhD3-285" source="xoI9QJaOge4s5o_3HhD3-286">
          <mxGeometry width="50" height="50" relative="1" as="geometry">
            <mxPoint x="-150" y="170" as="sourcePoint" />
            <mxPoint x="10" as="targetPoint" />
          </mxGeometry>
        </mxCell>
        <mxCell id="xoI9QJaOge4s5o_3HhD3-288" value="" style="group" vertex="1" connectable="0" parent="1">
          <mxGeometry x="300" y="1211" width="20" height="50" as="geometry" />
        </mxCell>
        <mxCell id="xoI9QJaOge4s5o_3HhD3-289" value="2" style="rounded=0;whiteSpace=wrap;html=1;fillColor=#FF9999;" vertex="1" parent="xoI9QJaOge4s5o_3HhD3-288">
          <mxGeometry y="30" width="20" height="20" as="geometry" />
        </mxCell>
        <mxCell id="xoI9QJaOge4s5o_3HhD3-290" value="" style="endArrow=classic;html=1;rounded=0;exitX=0.5;exitY=0;exitDx=0;exitDy=0;" edge="1" parent="xoI9QJaOge4s5o_3HhD3-288" source="xoI9QJaOge4s5o_3HhD3-289">
          <mxGeometry width="50" height="50" relative="1" as="geometry">
            <mxPoint x="-150" y="170" as="sourcePoint" />
            <mxPoint x="10" as="targetPoint" />
          </mxGeometry>
        </mxCell>
        <mxCell id="xoI9QJaOge4s5o_3HhD3-291" value="" style="group" vertex="1" connectable="0" parent="1">
          <mxGeometry x="240" y="1211" width="20" height="50" as="geometry" />
        </mxCell>
        <mxCell id="xoI9QJaOge4s5o_3HhD3-292" value="1" style="rounded=0;whiteSpace=wrap;html=1;fillColor=#FF9999;" vertex="1" parent="xoI9QJaOge4s5o_3HhD3-291">
          <mxGeometry y="30" width="20" height="20" as="geometry" />
        </mxCell>
        <mxCell id="xoI9QJaOge4s5o_3HhD3-293" value="" style="endArrow=classic;html=1;rounded=0;exitX=0.5;exitY=0;exitDx=0;exitDy=0;" edge="1" parent="xoI9QJaOge4s5o_3HhD3-291" source="xoI9QJaOge4s5o_3HhD3-292">
          <mxGeometry width="50" height="50" relative="1" as="geometry">
            <mxPoint x="-150" y="170" as="sourcePoint" />
            <mxPoint x="10" as="targetPoint" />
          </mxGeometry>
        </mxCell>
        <mxCell id="xoI9QJaOge4s5o_3HhD3-294" value="下标：" style="rounded=1;whiteSpace=wrap;html=1;fillColor=#FFFFCC;" vertex="1" parent="1">
          <mxGeometry x="80" y="1231" width="50" height="20" as="geometry" />
        </mxCell>
        <mxCell id="xoI9QJaOge4s5o_3HhD3-295" value="数组：" style="rounded=1;whiteSpace=wrap;html=1;fillColor=#FFFFCC;" vertex="1" parent="1">
          <mxGeometry x="80" y="1171" width="50" height="20" as="geometry" />
        </mxCell>
        <mxCell id="xoI9QJaOge4s5o_3HhD3-296" value="&lt;font style=&quot;font-size: 14px;&quot;&gt;result:5&lt;/font&gt;" style="rounded=1;whiteSpace=wrap;html=1;fillColor=#66FFB3;" vertex="1" parent="1">
          <mxGeometry x="290" y="1121" width="90" height="20" as="geometry" />
        </mxCell>
        <mxCell id="xoI9QJaOge4s5o_3HhD3-297" value="&lt;font style=&quot;font-size: 14px;&quot;&gt;thisMaxSub:5&lt;/font&gt;" style="rounded=1;whiteSpace=wrap;html=1;fillColor=#66FFB3;" vertex="1" parent="1">
          <mxGeometry x="465" y="1121" width="95" height="20" as="geometry" />
        </mxCell>
      </root>
    </mxGraphModel>
  </diagram>
</mxfile>
